<svg width="56" height="49" viewBox="0 0 56 49" fill="none" xmlns="http://www.w3.org/2000/svg">
<path fill-rule="evenodd" clip-rule="evenodd" d="M7.76161 11.1211C7.6724 11.11 7.6015 11.0408 7.58817 10.9519C7.57483 10.863 7.62232 10.7761 7.70435 10.7393L37.4526 0.851895C38.2409 0.653654 39.0767 0.826411 39.7219 1.32098C40.367 1.81555 40.7509 2.57775 40.7643 3.39056V12.1614L7.76161 11.1211Z" fill="#00ACCD" stroke="#231F20"/>
<path fill-rule="evenodd" clip-rule="evenodd" d="M10.9688 12.5143L42.0149 5.24184C42.8059 5.07524 43.6297 5.2797 44.251 5.79683C44.8723 6.31396 45.2228 7.08693 45.2026 7.89503V16.5513L10.9688 12.5143Z" fill="#00ACCD" stroke="#231F20"/>
<path d="M42.2722 47.827H9.29815C4.93293 47.785 1.42234 44.2233 1.44345 39.8579V18.5751C1.42234 14.2097 4.93293 10.6479 9.29815 10.606H42.2722C46.6337 10.6531 50.1385 14.2134 50.1173 18.5751V39.8579C50.1385 44.2196 46.6337 47.7798 42.2722 47.827Z" fill="#FFF2E3" stroke="#231F20"/>
<path opacity="0.5" fill-rule="evenodd" clip-rule="evenodd" d="M41.948 47.4642H9.6229C5.34423 47.417 1.90502 43.9267 1.92095 39.6478V18.7849C1.90506 14.5076 5.34576 11.02 9.6229 10.978H41.948C46.2214 11.0252 49.6563 14.5113 49.6404 18.7849V39.6478C49.6616 43.9251 46.2251 47.417 41.948 47.4642Z" fill="#AFF7F3"/>
<path fill-rule="evenodd" clip-rule="evenodd" d="M46.8537 12.6865C48.6077 14.244 49.6116 16.4775 49.6119 18.8232V39.3521C49.6872 43.6658 46.2888 47.2428 41.9768 47.388H9.21269C6.92834 47.3742 4.77475 46.3202 3.3623 44.5248" fill="#FFF2E3"/>
<path d="M50.6899 34.7901H46.2424C43.7078 34.7691 41.6656 32.7056 41.6709 30.1709V29.5887C41.6656 27.0555 43.7093 24.9948 46.2424 24.979H50.6899C53.223 24.9948 55.2667 27.0555 55.2614 29.5887V30.1709C55.2667 32.7056 53.2245 34.7691 50.6899 34.7901Z" fill="#00ACCD" stroke="#000001"/>
</svg>
