<svg width="308" height="308" viewBox="0 0 308 308" fill="none" xmlns="http://www.w3.org/2000/svg">
<path d="M154.361 295.66C232.774 295.66 296.341 232.094 296.341 153.68C296.341 75.2668 232.774 11.7002 154.361 11.7002C75.9474 11.7002 12.3809 75.2668 12.3809 153.68C12.3809 232.094 75.9474 295.66 154.361 295.66Z" fill="#2075BC"/>
<path d="M154.359 290.17C229.74 290.17 290.849 229.061 290.849 153.68C290.849 78.2986 229.74 17.1899 154.359 17.1899C78.9778 17.1899 17.8691 78.2986 17.8691 153.68C17.8691 229.061 78.9778 290.17 154.359 290.17Z" fill="url(#paint0_radial_621_1879)"/>
<path d="M171.331 181.19C182.141 184.66 192.541 183.17 202.671 178.86C207.881 176.65 212.611 173.63 216.971 170.02C220.511 167.1 224.381 164.86 228.931 163.86C232.741 163.02 236.231 163.56 238.731 166.65C241.211 169.71 242.121 173.32 240.601 177.19C238.571 182.37 234.651 185.94 230.201 188.95C215.311 199.02 198.561 204.29 181.091 207.52C169.511 209.66 157.851 210.63 146.201 207.68C143.141 206.91 140.231 205.85 137.541 204.24C124.331 196.31 111.911 198.41 100.021 207.17C98.7608 208.1 97.6108 209.16 96.4108 210.17C93.2408 212.87 90.1408 212.79 87.3308 209.71C81.6308 203.48 76.0208 197.16 70.3508 190.89C67.6908 187.95 67.8708 185.02 70.4608 182.22C80.3808 171.52 90.9508 161.59 103.541 154C114.061 147.66 125.041 144.92 137.091 149.16C139.581 150.04 142.291 150.32 144.751 151.26C158.251 156.41 172.241 158.16 186.601 157.65C188.591 157.58 190.651 157.95 192.601 158.41C196.661 159.36 199.891 161.41 200.511 165.94C201.151 170.64 199.111 174.19 195.181 176.59C189.391 180.14 182.801 180.66 176.251 181.17C174.631 181.3 172.971 181.19 171.331 181.19ZM170.841 175.82C170.841 175.73 170.851 175.64 170.851 175.55C173.201 175.55 175.551 175.7 177.881 175.52C182.551 175.16 187.241 174.63 191.491 172.45C193.681 171.33 195.421 169.63 195.001 166.91C194.591 164.2 192.211 163.81 190.051 163.45C188.211 163.14 186.311 162.81 184.461 162.91C170.061 163.7 156.171 161.41 142.661 156.4C139.751 155.32 136.571 154.99 133.641 153.97C124.981 150.96 117.001 152.95 109.341 157.09C96.3908 164.1 85.7908 174.01 75.7408 184.59C74.1008 186.32 74.5608 187.39 75.9208 188.87C80.2608 193.59 84.6808 198.25 88.7108 203.22C91.0308 206.08 92.4408 206.35 95.5408 203.89C109.561 192.74 124.621 190.21 140.691 199.69C143.531 201.37 146.671 202.29 149.921 202.89C160.391 204.8 170.791 203.9 181.121 201.92C197.171 198.85 212.551 193.95 226.371 184.94C229.651 182.8 232.711 180.33 234.701 176.85C235.961 174.65 236.111 172.29 234.441 170.27C232.891 168.41 230.761 168.97 228.781 169.58C225.751 170.51 223.111 172.16 220.681 174.16C217.291 176.95 213.721 179.46 209.831 181.5C195.201 189.16 180.071 191.44 164.201 185.67C160.331 184.26 157.831 181.89 157.831 177.45C157.831 175.43 158.371 174.75 160.581 175.07C163.961 175.54 167.421 175.58 170.841 175.82Z" fill="#034EA2"/>
<path d="M154.982 140.08C142.332 140.08 129.682 139.99 117.032 140.15C113.912 140.19 112.602 139.58 112.752 136.11C113.062 128.78 112.622 121.42 113.062 114.1C113.902 100.16 125.222 88.7599 139.132 88.1499C149.732 87.6799 160.382 87.6699 170.972 88.1799C184.962 88.8499 196.382 100.89 196.842 114.87C197.082 122.2 196.782 129.55 196.992 136.89C197.072 139.8 195.822 140.15 193.392 140.13C180.592 140.03 167.782 140.08 154.982 140.08ZM155.102 134.71C159.952 134.71 164.802 134.59 169.642 134.76C172.372 134.86 173.162 133.8 173.082 131.2C172.922 126.2 173.012 121.19 173.052 116.19C173.062 114.44 172.422 112.39 175.572 112.36C178.572 112.32 178.302 114.1 178.292 116.02C178.272 121.18 178.372 126.35 178.252 131.5C178.192 133.94 179.072 134.9 181.522 134.75C183.862 134.6 186.212 134.64 188.562 134.74C190.672 134.83 191.762 134.19 191.702 131.85C191.542 126.23 191.892 120.56 191.372 114.98C190.172 102.19 180.802 93.5399 168.032 93.2499C159.282 93.0499 150.512 93.0499 141.752 93.2499C129.372 93.5299 120.172 101.77 118.482 114.08C117.972 117.77 118.152 121.57 118.132 125.31C118.092 135.32 118.112 135.22 128.292 134.78C130.832 134.67 131.612 133.78 131.392 131.44C131.282 130.36 131.372 129.25 131.372 128.16C131.372 112.4 132.052 111.32 134.112 112.62C140.372 116.56 135.112 123.16 136.762 128.34C136.902 128.77 136.852 129.29 136.772 129.74C135.952 134.08 137.992 135.09 141.972 134.79C146.322 134.45 150.722 134.71 155.102 134.71Z" fill="#034EA2"/>
<path d="M179.971 58.6401C180.021 72.8601 168.991 83.9801 154.851 83.9501C140.861 83.9201 129.901 72.9601 129.861 58.9901C129.821 44.9301 141.121 33.4601 154.971 33.5001C168.641 33.5301 179.911 44.8701 179.971 58.6401ZM174.521 58.8201C174.531 47.9201 165.791 39.1701 154.891 39.1601C144.101 39.1601 135.131 48.0901 135.151 58.8301C135.161 69.5201 144.221 78.5801 154.901 78.5801C165.641 78.6001 174.511 69.6601 174.521 58.8201Z" fill="#034EA2"/>
<path d="M78.9513 231.669H76.6033C76.4644 230.994 76.2214 230.4 75.8742 229.889C75.5334 229.378 75.1168 228.949 74.6244 228.601C74.1384 228.248 73.5987 227.983 73.0054 227.806C72.4121 227.629 71.7935 227.541 71.1497 227.541C69.9757 227.541 68.9121 227.838 67.959 228.431C67.0122 229.024 66.2579 229.899 65.6961 231.054C65.1407 232.209 64.8629 233.626 64.8629 235.305C64.8629 236.984 65.1407 238.401 65.6961 239.556C66.2579 240.711 67.0122 241.585 67.959 242.179C68.9121 242.772 69.9757 243.069 71.1497 243.069C71.7935 243.069 72.4121 242.98 73.0054 242.803C73.5987 242.627 74.1384 242.365 74.6244 242.018C75.1168 241.664 75.5334 241.232 75.8742 240.72C76.2214 240.203 76.4644 239.61 76.6033 238.94H78.9513C78.7746 239.931 78.4527 240.818 77.9856 241.601C77.5185 242.384 76.9378 243.05 76.2435 243.599C75.5492 244.142 74.7696 244.555 73.9049 244.839C73.0464 245.123 72.1281 245.265 71.1497 245.265C69.4959 245.265 68.0253 244.861 66.7376 244.053C65.45 243.245 64.4369 242.096 63.6984 240.607C62.9599 239.117 62.5906 237.35 62.5906 235.305C62.5906 233.26 62.9599 231.492 63.6984 230.003C64.4369 228.513 65.45 227.364 66.7376 226.556C68.0253 225.748 69.4959 225.344 71.1497 225.344C72.1281 225.344 73.0464 225.486 73.9049 225.77C74.7696 226.055 75.5492 226.471 76.2435 227.02C76.9378 227.563 77.5185 228.226 77.9856 229.009C78.4527 229.785 78.7746 230.672 78.9513 231.669ZM91.6077 239.054V230.457H93.8421V245H91.6077V242.538H91.4562C91.1153 243.277 90.5851 243.905 89.8656 244.422C89.146 244.934 88.2371 245.189 87.1388 245.189C86.2298 245.189 85.4219 244.991 84.715 244.593C84.008 244.189 83.4526 243.583 83.0486 242.775C82.6446 241.961 82.4426 240.935 82.4426 239.698V230.457H84.6771V239.546C84.6771 240.607 84.9738 241.453 85.5671 242.084C86.1667 242.715 86.9305 243.031 87.8583 243.031C88.4138 243.031 88.9787 242.889 89.5531 242.605C90.1338 242.321 90.6198 241.885 91.0112 241.298C91.4088 240.711 91.6077 239.963 91.6077 239.054ZM108.236 233.714L106.229 234.282C106.102 233.948 105.916 233.623 105.67 233.307C105.43 232.985 105.102 232.72 104.685 232.512C104.269 232.303 103.735 232.199 103.085 232.199C102.195 232.199 101.454 232.404 100.86 232.815C100.273 233.219 99.9797 233.733 99.9797 234.358C99.9797 234.913 100.182 235.352 100.586 235.674C100.99 235.996 101.621 236.264 102.479 236.479L104.638 237.009C105.938 237.325 106.907 237.807 107.545 238.458C108.182 239.101 108.501 239.931 108.501 240.948C108.501 241.781 108.261 242.526 107.781 243.182C107.308 243.839 106.645 244.356 105.793 244.735C104.941 245.114 103.95 245.303 102.82 245.303C101.337 245.303 100.109 244.981 99.1371 244.337C98.165 243.693 97.5496 242.753 97.2908 241.516L99.4117 240.986C99.6136 241.768 99.9955 242.355 100.557 242.747C101.125 243.138 101.867 243.334 102.782 243.334C103.824 243.334 104.651 243.113 105.263 242.671C105.881 242.223 106.191 241.686 106.191 241.061C106.191 240.556 106.014 240.133 105.661 239.793C105.307 239.445 104.764 239.187 104.032 239.016L101.608 238.448C100.276 238.133 99.298 237.643 98.6732 236.981C98.0546 236.312 97.7453 235.475 97.7453 234.472C97.7453 233.651 97.9757 232.925 98.4365 232.294C98.9035 231.663 99.5379 231.167 100.34 230.807C101.147 230.448 102.063 230.268 103.085 230.268C104.524 230.268 105.654 230.583 106.475 231.215C107.302 231.846 107.889 232.679 108.236 233.714ZM118.189 230.457V232.351H110.653V230.457H118.189ZM112.849 226.973H115.084V240.834C115.084 241.465 115.175 241.939 115.358 242.254C115.547 242.564 115.787 242.772 116.078 242.879C116.374 242.98 116.687 243.031 117.015 243.031C117.261 243.031 117.463 243.018 117.621 242.993C117.779 242.961 117.905 242.936 118 242.917L118.454 244.924C118.303 244.981 118.091 245.038 117.82 245.095C117.548 245.158 117.204 245.189 116.788 245.189C116.157 245.189 115.538 245.054 114.932 244.782C114.332 244.511 113.834 244.097 113.436 243.542C113.045 242.986 112.849 242.286 112.849 241.44V226.973ZM127.302 245.303C125.989 245.303 124.837 244.991 123.846 244.366C122.862 243.741 122.091 242.867 121.536 241.743C120.987 240.619 120.712 239.307 120.712 237.804C120.712 236.289 120.987 234.967 121.536 233.837C122.091 232.707 122.862 231.83 123.846 231.205C124.837 230.58 125.989 230.268 127.302 230.268C128.615 230.268 129.764 230.58 130.748 231.205C131.739 231.83 132.509 232.707 133.059 233.837C133.614 234.967 133.892 236.289 133.892 237.804C133.892 239.307 133.614 240.619 133.059 241.743C132.509 242.867 131.739 243.741 130.748 244.366C129.764 244.991 128.615 245.303 127.302 245.303ZM127.302 243.296C128.299 243.296 129.12 243.04 129.764 242.529C130.408 242.018 130.884 241.345 131.193 240.512C131.503 239.679 131.657 238.776 131.657 237.804C131.657 236.832 131.503 235.927 131.193 235.087C130.884 234.248 130.408 233.569 129.764 233.051C129.12 232.534 128.299 232.275 127.302 232.275C126.305 232.275 125.484 232.534 124.84 233.051C124.197 233.569 123.72 234.248 123.411 235.087C123.101 235.927 122.947 236.832 122.947 237.804C122.947 238.776 123.101 239.679 123.411 240.512C123.72 241.345 124.197 242.018 124.84 242.529C125.484 243.04 126.305 243.296 127.302 243.296ZM137.303 245V230.457H139.461V232.729H139.651C139.954 231.953 140.443 231.35 141.118 230.921C141.794 230.486 142.605 230.268 143.551 230.268C144.511 230.268 145.309 230.486 145.947 230.921C146.591 231.35 147.092 231.953 147.452 232.729H147.604C147.976 231.978 148.535 231.382 149.28 230.94C150.024 230.492 150.918 230.268 151.959 230.268C153.259 230.268 154.323 230.675 155.15 231.489C155.977 232.297 156.39 233.556 156.39 235.267V245H154.156V235.267C154.156 234.194 153.862 233.427 153.275 232.966C152.688 232.505 151.997 232.275 151.202 232.275C150.179 232.275 149.387 232.584 148.825 233.203C148.263 233.815 147.982 234.592 147.982 235.532V245H145.71V235.04C145.71 234.213 145.442 233.547 144.905 233.042C144.369 232.531 143.678 232.275 142.832 232.275C142.251 232.275 141.708 232.43 141.203 232.739C140.705 233.048 140.301 233.477 139.991 234.027C139.689 234.569 139.537 235.197 139.537 235.911V245H137.303ZM166.573 245.303C165.172 245.303 163.963 244.994 162.947 244.375C161.937 243.75 161.157 242.879 160.608 241.762C160.065 240.638 159.794 239.332 159.794 237.842C159.794 236.353 160.065 235.04 160.608 233.904C161.157 232.761 161.921 231.871 162.899 231.234C163.884 230.59 165.033 230.268 166.346 230.268C167.103 230.268 167.851 230.394 168.59 230.647C169.328 230.899 170 231.309 170.606 231.877C171.212 232.439 171.695 233.184 172.055 234.112C172.415 235.04 172.595 236.182 172.595 237.539V238.486H161.384V236.555H170.322C170.322 235.734 170.158 235.002 169.83 234.358C169.508 233.714 169.047 233.206 168.448 232.834C167.854 232.461 167.154 232.275 166.346 232.275C165.456 232.275 164.686 232.496 164.035 232.938C163.392 233.373 162.896 233.941 162.549 234.642C162.202 235.343 162.028 236.094 162.028 236.895V238.183C162.028 239.281 162.218 240.212 162.596 240.976C162.981 241.734 163.515 242.311 164.196 242.709C164.878 243.1 165.67 243.296 166.573 243.296C167.16 243.296 167.69 243.214 168.164 243.05C168.643 242.879 169.057 242.627 169.404 242.292C169.751 241.951 170.019 241.528 170.209 241.023L172.367 241.629C172.14 242.362 171.758 243.005 171.222 243.561C170.685 244.11 170.022 244.539 169.233 244.849C168.444 245.151 167.558 245.303 166.573 245.303ZM175.994 245V230.457H178.152V232.654H178.304C178.569 231.934 179.049 231.35 179.743 230.902C180.437 230.454 181.22 230.23 182.091 230.23C182.255 230.23 182.46 230.233 182.706 230.239C182.953 230.246 183.139 230.255 183.265 230.268V232.54C183.189 232.521 183.016 232.493 182.744 232.455C182.479 232.411 182.198 232.389 181.902 232.389C181.195 232.389 180.563 232.537 180.008 232.834C179.459 233.124 179.023 233.528 178.701 234.046C178.386 234.557 178.228 235.141 178.228 235.797V245H175.994ZM193.715 245V225.61H205.342V227.693H196.063V234.244H204.471V236.327H196.063V245H193.715ZM209.061 245V230.457H211.295V245H209.061ZM210.197 228.033C209.761 228.033 209.386 227.885 209.07 227.588C208.761 227.292 208.606 226.935 208.606 226.518C208.606 226.102 208.761 225.745 209.07 225.449C209.386 225.152 209.761 225.004 210.197 225.004C210.632 225.004 211.005 225.152 211.314 225.449C211.629 225.745 211.787 226.102 211.787 226.518C211.787 226.935 211.629 227.292 211.314 227.588C211.005 227.885 210.632 228.033 210.197 228.033ZM215.388 245V230.457H217.546V232.654H217.698C217.963 231.934 218.443 231.35 219.137 230.902C219.831 230.454 220.614 230.23 221.485 230.23C221.649 230.23 221.854 230.233 222.1 230.239C222.346 230.246 222.533 230.255 222.659 230.268V232.54C222.583 232.521 222.41 232.493 222.138 232.455C221.873 232.411 221.592 232.389 221.296 232.389C220.589 232.389 219.957 232.537 219.402 232.834C218.853 233.124 218.417 233.528 218.095 234.046C217.78 234.557 217.622 235.141 217.622 235.797V245H215.388ZM235.609 233.714L233.602 234.282C233.475 233.948 233.289 233.623 233.043 233.307C232.803 232.985 232.475 232.72 232.058 232.512C231.642 232.303 231.108 232.199 230.458 232.199C229.568 232.199 228.827 232.404 228.233 232.815C227.646 233.219 227.353 233.733 227.353 234.358C227.353 234.913 227.555 235.352 227.959 235.674C228.363 235.996 228.994 236.264 229.852 236.479L232.011 237.009C233.311 237.325 234.28 237.807 234.918 238.458C235.555 239.101 235.874 239.931 235.874 240.948C235.874 241.781 235.634 242.526 235.154 243.182C234.681 243.839 234.018 244.356 233.166 244.735C232.314 245.114 231.323 245.303 230.193 245.303C228.71 245.303 227.482 244.981 226.51 244.337C225.538 243.693 224.923 242.753 224.664 241.516L226.785 240.986C226.987 241.768 227.368 242.355 227.93 242.747C228.498 243.138 229.24 243.334 230.155 243.334C231.197 243.334 232.024 243.113 232.636 242.671C233.254 242.223 233.564 241.686 233.564 241.061C233.564 240.556 233.387 240.133 233.033 239.793C232.68 239.445 232.137 239.187 231.405 239.016L228.981 238.448C227.649 238.133 226.671 237.643 226.046 236.981C225.428 236.312 225.118 235.475 225.118 234.472C225.118 233.651 225.349 232.925 225.809 232.294C226.276 231.663 226.911 231.167 227.712 230.807C228.52 230.448 229.436 230.268 230.458 230.268C231.897 230.268 233.027 230.583 233.848 231.215C234.675 231.846 235.262 232.679 235.609 233.714ZM245.562 230.457V232.351H238.025V230.457H245.562ZM240.222 226.973H242.457V240.834C242.457 241.465 242.548 241.939 242.731 242.254C242.92 242.564 243.16 242.772 243.451 242.879C243.747 242.98 244.06 243.031 244.388 243.031C244.634 243.031 244.836 243.018 244.994 242.993C245.152 242.961 245.278 242.936 245.373 242.917L245.827 244.924C245.676 244.981 245.464 245.038 245.193 245.095C244.921 245.158 244.577 245.189 244.161 245.189C243.53 245.189 242.911 245.054 242.305 244.782C241.705 244.511 241.207 244.097 240.809 243.542C240.418 242.986 240.222 242.286 240.222 241.44V226.973Z" fill="#034EA2"/>
<defs>
<radialGradient id="paint0_radial_621_1879" cx="0" cy="0" r="1" gradientUnits="userSpaceOnUse" gradientTransform="translate(154.356 153.679) scale(136.49 136.49)">
<stop stop-color="#E6E6E4"/>
<stop offset="0.4135" stop-color="white"/>
<stop offset="1" stop-color="#E6E6E4"/>
</radialGradient>
</defs>
</svg>
