<?xml version="1.0" encoding="utf-8"?>
<!-- Generator: Adobe Illustrator 24.2.0, SVG Export Plug-In . SVG Version: 6.00 Build 0)  -->
<svg version="1.1" id="Layer_1" xmlns="http://www.w3.org/2000/svg" xmlns:xlink="http://www.w3.org/1999/xlink" x="0px" y="0px"
	 viewBox="0 0 308 308" style="enable-background:new 0 0 308 308;" xml:space="preserve">
<style type="text/css">
	.st0{fill:#2075BC;}
	.st1{fill:url(#SVGID_1_);}
	.st2{fill:url(#SVGID_2_);}
	.st3{fill-rule:evenodd;clip-rule:evenodd;fill:#034EA2;}
	.st4{fill:url(#SVGID_3_);}
	.st5{fill:url(#SVGID_4_);}
	.st6{fill:url(#SVGID_5_);}
	.st7{fill:url(#SVGID_6_);}
	.st8{fill:#393A89;}
	.st9{fill-rule:evenodd;clip-rule:evenodd;fill:#393A89;}
	.st10{fill-rule:evenodd;clip-rule:evenodd;fill:#C9EAF1;}
	.st11{fill-rule:evenodd;clip-rule:evenodd;fill:#3A53A4;}
	.st12{fill-rule:evenodd;clip-rule:evenodd;fill:#ED2224;}
	.st13{fill-rule:evenodd;clip-rule:evenodd;fill:#66CCEC;}
	.st14{fill:#FFFFFF;}
	.st15{fill:#3A53A4;}
	.st16{fill-rule:evenodd;clip-rule:evenodd;fill:#FFFFFF;}
	.st17{fill:#70CDDD;}
	.st18{fill:#010101;}
	.st19{fill-rule:evenodd;clip-rule:evenodd;fill:#010101;}
	.st20{fill:url(#SVGID_7_);}
	.st21{fill:#034EA2;}
	.st22{fill:url(#SVGID_8_);}
	.st23{fill:url(#SVGID_9_);}
	.st24{fill:url(#SVGID_10_);}
	.st25{fill:#F4F4F3;}
	.st26{fill:url(#SVGID_11_);}
	.st27{fill:#1D1D1D;}
	.st28{fill:#171818;}
	.st29{fill:#2EA0C2;}
	.st30{fill:#2B9FC2;}
	.st31{fill:#B62F34;}
	.st32{fill:#B52830;}
	.st33{fill:#262626;}
	.st34{fill:#222323;}
	.st35{fill:#2A2B2B;}
	.st36{fill:#37A2C4;}
	.st37{fill:#C6C7CA;}
	.st38{fill:#323232;}
	.st39{fill:#47A9C9;}
	.st40{fill:#01B5AB;}
</style>
<circle class="st0" cx="154.36" cy="153.68" r="141.98"/>
<radialGradient id="SVGID_1_" cx="154.3571" cy="153.6786" r="136.4903" gradientUnits="userSpaceOnUse">
	<stop  offset="0" style="stop-color:#E6E6E4"/>
	<stop  offset="0.4135" style="stop-color:#FFFFFF"/>
	<stop  offset="1" style="stop-color:#E6E6E4"/>
</radialGradient>
<circle class="st1" cx="154.36" cy="153.68" r="136.49"/>
<g>
	<path class="st21" d="M137.98,267.73c-1.94-0.02-3.89,0.13-5.79-0.41c-1.86-0.9-3.54-2.04-4.92-3.6c-0.47-0.88-0.95-1.76-1.42-2.64
		c-0.19-0.65-0.38-1.3-0.63-2.16c-1.98,1.67-4.11,2.56-6.42,3.07c-2.33,0.11-4.5-0.52-6.6-1.44c-1.01-0.89-2.02-1.77-3.04-2.66
		c-1.12-1.93-2.07-3.9-2.09-6.2c0.06-0.79-0.07-1.65,0.21-2.35c0.74-1.92-0.16-2.46-1.85-2.5c-2.88-1.02-5.03-2.93-6.64-5.49
		c-0.48-1.87-1.12-3.71-0.99-5.69c0.05-0.44,0.09-0.88,0.14-1.31c0.59-0.74,0.35-0.99-0.51-0.88c-1.35-0.43-2.71-0.87-4.06-1.3
		c-1-0.79-2-1.57-3-2.36c-1.08-1.96-2.36-3.85-2.4-6.22c0.15-1.7-0.08-3.44,0.83-5.04c0.39-0.68,0.38-1.41-0.59-1.71
		c-0.68-1.15-1.7-1.96-2.73-2.75c-3.44-3.52-6.88-7.04-10.32-10.55c-0.87-2.09-0.37-4,0.79-5.82c1.78-2.52,3.57-5.04,5.35-7.57
		c3.01-4.28,6.02-8.56,9.03-12.84c0.74-1.06,1.49-2.11,2.23-3.17c1.05-1.29,2.1-2.56,2.81-4.08c3.28-4.3,6.39-8.71,9.3-13.26
		c0.76-0.38,0.75-1.3,1.3-1.82c1.74-1.69,4.15-1.06,6.16-1.79c2.25,0.08,4.48-0.06,6.68-0.51c0.3,0,0.61-0.01,0.91-0.01l0.21,0.04
		l0.2-0.06c0.79,0.09,1.57,0.1,2.28-0.36c0.43-0.02,0.86-0.04,1.29-0.06c0.6,0,1.21,0,1.81,0c2.05,0.18,4.09,0.36,6.14,0.54
		c2.41,0.71,4.83,1.42,7.24,2.13c2.52,1.92,5.04,1.95,7.54-0.04c1.77-0.69,3.54-1.38,5.3-2.08l-0.05-0.01
		c0.2-0.05,0.39-0.1,0.59-0.15c2.22-0.88,4.44-1.75,6.66-2.63c2.33-0.62,4.53-1.59,6.74-2.55c2.23-0.62,4.34-1.61,6.66-1.91
		c2.21,0.14,4.45-0.13,6.62,0.53c2.26,0.83,4.52,1.66,6.78,2.49c4.44,1.57,8.88,3.15,13.31,4.72c2.24,0.82,4.49,1.65,6.73,2.47
		c0.89,0.62,1.77,1.25,2.66,1.87c1.77,4.11,3.76,8.1,5.85,12.05c0.11,0.18,0.23,0.36,0.34,0.54c0,0-0.02-0.01-0.02-0.01
		c2.37,4.74,4.74,9.47,7.11,14.21c0.95,1.92,1.91,3.84,2.86,5.76c0.25,0.82,0.6,1.59,1.17,2.25c0.6,1.56,1.26,3.08,2.26,4.43
		c1.09,2.37,2.19,4.73,3.28,7.1c0.63,2.5-0.77,4.2-2.33,5.83c-1.34,1.18-2.69,2.36-4.03,3.54c-1.09,1.01-2.17,2.03-3.26,3.04
		c-1.17,0.72-2.18,1.62-3,2.73c-1.68,1.13-3.18,2.47-4.47,4.03c-1.45,0.68-1.58,1.34-0.28,2.48c1.75,1.52,3.29,3.28,4.92,4.93
		c1.17,2.14,2.09,4.36,2.14,6.86c-0.01,0.75-0.01,1.5-0.02,2.25c-0.06,0.14-0.07,0.29-0.04,0.44l-0.08,0.07l-0.01-0.04
		c-0.09,0.29-0.17,0.59-0.26,0.88c-0.09,0.12-0.11,0.26-0.05,0.4c-0.02,0.14-0.04,0.28-0.07,0.42c-0.09,0.14-0.18,0.28-0.26,0.43
		c-0.2,0.47-0.4,0.94-0.6,1.4c-0.16,0.28-0.32,0.57-0.48,0.85c-0.34,0.2-0.56,0.48-0.57,0.89c-0.09,0.12-0.18,0.25-0.27,0.37
		c-1.62,1.4-3,3.08-4.92,4.13c-0.31,0.13-0.62,0.25-0.94,0.38c-0.3,0.04-0.59,0.08-0.89,0.13c-0.3-0.05-0.4,0.13-0.45,0.37
		c-1.9,1.23-3.56-0.08-5.3-0.5c-0.08-0.31-0.12-0.64-0.5-0.76c-0.7-0.87-1.34-1.79-2.39-2.3c-0.24-0.24-0.48-0.47-0.71-0.71
		c-0.65-1.17-1.71-1.95-2.7-2.8c-0.58-0.55-1.15-1.11-1.73-1.66c-0.54-0.9-1.26-1.6-2.15-2.15c-4-3.98-8-7.97-12-11.95l-0.01,0
		c-0.74-0.85-1.3-2.15-2.74-1.55c-0.92,0.38-0.78,1.27-0.43,2.07c0.32,0.84,1.06,1.27,1.7,1.8c1.09,1.3,2.23,2.54,3.59,3.56
		c0.2,0.18,0.41,0.36,0.61,0.55c0.11,0.12,0.23,0.24,0.34,0.36c0.12,0.12,0.24,0.25,0.36,0.37c2.46,2.82,5.21,5.36,7.93,7.92
		c0.18,0.5,0.51,0.84,0.98,1.06c0.9,0.89,1.8,1.78,2.7,2.67c1.33,1.33,2.67,2.66,4,3.98c2.18,2.35,2.18,2.87,0.11,5.58
		c-0.27,0.35-0.46,0.75-0.69,1.12c-1.35,1.18-2.52,2.52-3.57,3.97c-0.86,0.61-1.72,1.22-2.58,1.83c-1.19,0.47-2.38,0.94-3.57,1.41
		c-2.06,0.33-4.1,0.14-6.15-0.11c-0.61-0.44-1.23-0.88-1.84-1.32c-1.63-1.63-3.26-3.26-4.89-4.88c-0.46-0.44-0.91-0.88-1.37-1.33
		c-1.78-2.08-3.74-3.98-5.8-5.78c-0.17-0.15-0.33-0.29-0.5-0.44c-2.01-2.34-4.15-4.55-6.56-6.48c-0.15-0.17-0.29-0.34-0.44-0.51
		l0.03-0.01c-1.65-1.99-3.54-3.75-5.44-5.49c-0.24-0.26-0.47-0.52-0.71-0.77c-0.65-0.7-1.42-1.17-2.24-0.41
		c-0.88,0.81-0.55,1.72,0.17,2.47c0.55,0.57,1.19,1.05,1.79,1.58c0.86,1.17,1.86,2.19,3.06,3.03c1,1.37,2.23,2.5,3.54,3.54
		c1.07,1.38,2.32,2.58,3.7,3.63c0.84,1.23,1.92,2.21,3.1,3.1c1,1.4,2.25,2.54,3.6,3.59c0.88,1.18,1.9,2.22,3.1,3.07
		c0.81,0.85,0.45,1.51-0.24,2.26c-1.77,1.88-3.63,3.65-5.93,4.88c-4.69,1.64-9.28,2.43-13.39-1.41c-0.81-1.01-1.66-1.98-2.76-2.69
		c-1.13-1.41-2.25-2.82-3.89-3.68c-1.17-1.17-2.33-2.33-3.5-3.5c-0.74-0.85-1.07-2.22-2.81-2.18c0.56,0.79,0.47,1.51,0.46,2.21
		c-0.02,0.82-0.05,1.64,0.88,2.05c0.61,0.93,1.37,1.71,2.28,2.35c0.06,0.13,0.16,0.21,0.3,0.22l-0.03-0.03
		c0.14,0.14,0.28,0.28,0.42,0.43c0.23,0.52,0.58,0.93,1.11,1.15c0.31,0.58,0.63,1.13,1.33,1.31c1.62,1.65-0.63,1.83-1.03,2.71
		c-2.45,1.4-5.07,2.08-7.91,1.82c-1.26-0.7-2.75-0.83-3.99-1.64C139.24,267.04,138.5,267.17,137.98,267.73z M130.07,255.3
		c-0.6,2.37-0.39,4.53,1.62,6.23c2.86,2.19,4.59,2.29,7.67,0.44c1.27-0.86,2.06-2.02,2.2-3.57c0.68-2.34,0.01-4.14-2.18-5.9
		c-2.26-1.81-4.89-1.81-7.22,0.02C130.95,253.06,130.42,254.11,130.07,255.3z M133.54,206.18l0.21,0.03l0.2-0.06
		c1.33-0.5,2.65-1.04,3.63-2.13c1.17-0.5,1.99-1.43,2.84-2.31c1.22-0.78,2.13-1.86,2.91-3.07c1.07-1.07,2.04-2.2,2.65-3.61
		c1.27-1.41,2.06-3.1,2.72-4.85c1.03-1.94,1.84-3.96,2.31-6.12c0.84-1.9,1.1-3.96,1.61-5.96c0.28-2.67,0.55-5.33,0.83-8
		c0.1-0.8,0.29-1.24,1.35-1.06c1.35,0.23,2.75,0.09,4.13,0.12c0.31,0,0.61,0,0.92,0.01l0.21,0.05l0.21-0.04
		c0.74,0.32,1.49,0.65,2.23,0.97l0.04,0.09c0,0.12,0.05,0.21,0.16,0.26c0.09,0.42,0.37,0.93,0.23,1.26
		c-1.14,2.71,0.78,3.93,2.47,5.28c4.27,4.5,8.64,8.9,13.19,13.12c2.21,2.53,4.57,4.92,7.12,7.11c6.4,6.7,12.96,13.24,19.68,19.62
		c4.85,5.08,3.3,5.29,7.98,0.48c4.31-3.21,7.91-7.23,12.09-10.58c1.45-1.16,1.77-2.32,0.47-3.75c-1-2.03-2-4.07-3-6.1
		c-2.27-4.5-4.55-9-6.82-13.5c-0.85-2.17-1.86-4.26-3.15-6.21c-0.06-0.34,0-0.73-0.39-0.94c-0.91-2.14-1.88-4.24-3.13-6.2
		c-0.9-2.4-2.13-4.64-3.39-6.87c-0.81-3.81-4.18-3.83-6.96-4.72c-3.63-1.64-7.42-2.83-11.19-4.1c-0.65-0.5-1.39-0.72-2.2-0.78
		c-2.01-0.93-4.08-1.69-6.23-2.23c-2.3-1-4.62-1.8-7.16-0.95c-2.72,0.12-5.01,1.65-7.55,2.35c-2.1,0.86-4.2,1.72-6.3,2.59
		c-1.01,0.34-2.03,0.68-3.04,1.02c-1.06,0.43-2.11,0.85-3.17,1.28c-2.25,0.82-4.56,1.48-6.67,2.64c-1.34,0.82-2.95,1.36-3.4,3.15
		c-0.96,2.21-1.92,4.43-2.88,6.64c-0.47,0.34-0.63,0.85-0.76,1.37c-0.77,1.77-1.55,3.55-2.32,5.32c-1.04,2.23-2.07,4.46-3.11,6.69
		c-0.47,0.67-0.81,1.4-0.91,2.23c-1.98,3.93-3.96,7.86-5.5,11.99c-0.78,1.09-1.34,2.29-1.65,3.6c-1.03,1.69-0.28,3.09,1.02,4.03
		c1.97,1.41,4.22,1.89,6.59,0.93C132.96,206.24,133.25,206.21,133.54,206.18z M112,241.39l0.08-0.07c1.69-1.13,2.87-2.77,4.17-4.29
		c2.09-1.81,3.21-3.93,2.08-6.73c-0.64-2.26-2.14-3.56-4.43-3.96c-3.43-0.79-5.45,1.29-7.36,3.61c-0.07,0.04-0.12,0.11-0.15,0.19
		l-0.07,0.11c-0.45,0.46-0.9,0.91-1.35,1.37c-1.73,1.57-2.99,3.31-2.23,5.83c-0.02,2.02,1.06,3.34,2.74,4.27
		c2.08,1.33,4.14,1.24,6.2-0.06C111.78,241.57,111.89,241.48,112,241.39z M100.07,228.44c1.96-0.68,3.74-1.55,4.1-3.9
		c1.76-3.98-2.07-9-7.2-7.54c-3.59,1.14-5.24,4.22-4.04,7.54c1,2.94,2.51,3.99,5.87,4.08c0.28-0.05,0.56-0.09,0.84-0.14l0.22,0.04
		L100.07,228.44z M112.07,253.05c0.92,2.98,3.34,4.51,6.35,4.01c1.38,0.16,2.44-0.5,3.33-1.42c2.67-2.76,5.32-5.54,7.94-8.35
		c0.94-1.01,1.53-2.18,1.09-3.63c0.45-3.36-1.51-5.85-4.86-6.18c-1.98-0.39-3.68,0.16-5.05,1.6c-2.65,2.78-5.34,5.54-7.89,8.42
		C111.59,249.09,111.2,251.01,112.07,253.05z"/>
	<path class="st21" d="M41.62,183.15c3.03-4.33,6.06-8.65,9.09-12.98c0.8-0.6,1.18-1.5,1.65-2.34c1.08-1.36,2.37-2.58,2.81-4.35
		c0.39-0.06,0.59-0.31,0.82-0.63c2.92-4.24,5.88-8.45,8.83-12.67l-0.01,0l0.06-0.14c0.32-0.43,0.63-0.87,0.95-1.3
		c1.49-1.86,2.89-3.78,4.07-5.86c0.63-0.43,0.96-1.06,1.23-1.74c1.38-1.62,2.67-3.31,3.64-5.22c1.34-1.56,2.57-3.18,3.5-5.03
		c0.43-0.34,0.77-0.74,0.91-1.28c1-0.7,1.57-1.78,2.1-2.79c0.81-1.58,1.74-1.83,3.11-0.8c1.73,1.48,3.53,2.88,5.55,3.96
		c2.93,2.41,6.09,4.49,9.25,6.57c0.28,0.23,0.57,0.46,0.85,0.69c1.58,1.78,2.86,3.72,3.32,6.1c0.71,2.32-0.06,4.5-0.62,6.7
		c-1.42,2.14-2.83,4.27-4.25,6.41l-0.02,0.06c-1.92,2.36-3.68,4.82-5.22,7.44c-0.76,0.55-1.15,1.38-1.62,2.16
		c-0.74,1.05-1.48,2.1-2.22,3.16c-1.66,2.24-3.02,4.72-4.68,6.93c-1.67,2.22-3.37,4.41-4.83,6.78c-0.98,0.89-1.57,2.06-2.26,3.16
		c-0.99,1.09-1.83,2.29-2.51,3.6c-2.04,2.19-3.26,5.01-5.46,7.08c-1.47,0.72-2.94,1.45-4.41,2.17c-2.23,0.17-4.45,0.29-6.63-0.34
		c-1.32-0.75-2.63-1.51-3.95-2.26c-0.76-0.9-1.76-1.48-2.78-2.04c-2.1-1.48-4.2-2.96-6.31-4.44c0,0,0-0.02,0-0.02
		c-1.33-0.95-2.62-1.95-3.99-2.82c-1.31-0.84-1.94-1.67-0.53-2.97C41.33,183.87,41.44,183.47,41.62,183.15z M62.13,185.25
		c0.4-2.3-0.17-4.08-2.58-4.89c-2.44-0.85-3.8-0.27-5.29,2.26c-0.03,0.15-0.05,0.31-0.08,0.46c-0.07,0.13-0.13,0.27-0.2,0.4
		c-0.33,0.43-0.27,0.88-0.09,1.34c0.08,0.18,0.15,0.36,0.23,0.54c0.9,2.8,2.57,3.6,5.56,2.64
		C61.16,187.68,61.84,186.64,62.13,185.25z"/>
	<path class="st21" d="M232.85,194.66c-0.85-1.67-1.69-3.34-2.54-5.01c-1.31-3.06-2.85-5.99-4.49-8.88c-0.36-1.44-1.2-2.66-1.9-3.94
		c-1.01-2.31-2.07-4.59-3.43-6.72c-0.33-0.73-0.66-1.47-0.99-2.2c-0.56-1.05-1.13-2.1-1.69-3.16c-1.3-3.34-3.12-6.43-4.67-9.64
		c-0.79-1.63-1.37-3.36-2.05-5.05c-0.02-0.3-0.04-0.61-0.06-0.91c0-0.73,0.01-1.46,0.01-2.19c0.35-1.18,0.69-2.35,1.04-3.53
		c0.26-0.47,0.52-0.94,0.78-1.41c1.55-2.02,3.61-3.38,5.84-4.53c0.47-0.25,1.1-0.22,1.41-0.77c1.89-0.61,3.62-1.54,5.27-2.63
		c0.24-0.07,0.61,0.02,0.54-0.44l0.08,0.04c2.48-0.65,4.62-2.05,6.85-3.22c1.43-0.75,2.61-1.17,3.23,0.85
		c1.82,4.3,3.98,8.43,6.19,12.53c2.13,4.29,4.26,8.57,6.39,12.86c1.15,2.24,2.29,4.48,3.44,6.72c-0.03,0.15,0.01,0.29,0.1,0.41
		c1.15,2.25,2.3,4.5,3.44,6.75c2.28,4.58,4.55,9.16,6.83,13.74c1.02,2.09,2.04,4.18,3.06,6.27c0.5,2,2.54,3.43,2.12,5.77
		c-0.72,0.33-1.44,0.65-2.16,0.98c-2.09,1.03-4.18,2.06-6.27,3.09c-1.96,0.99-3.91,1.98-5.87,2.97c-0.26,0.15-0.51,0.3-0.77,0.45
		c-2.21,0.76-4.23,2.13-6.69,2.1c-2.02,0-3.93-0.52-5.81-1.2c-0.59-0.41-1.18-0.82-1.77-1.24c-2.11-1.81-3.02-4.42-4.48-6.67
		C233.52,196.13,233.18,195.39,232.85,194.66z M248.05,188.29c-0.63,0.3-1.15,0.71-1.27,1.45c-0.89,1.82-0.89,3.53,0.69,5
		c1.53,1.43,3.22,1.71,5.05,0.59c1.08-0.67,1.98-1.45,1.9-2.88c0.43-1.7,0.1-3.23-1.52-4.02
		C251.38,187.68,249.7,186.57,248.05,188.29z"/>
</g>
<g>
	<path class="st21" d="M103.77,54.91c-0.22-1.75-0.43-3.49-0.65-5.24c0.63-0.15,1.47-0.07,1.57-0.94c0.11-0.96-0.67-1.36-1.39-1.74
		c0.08-3.59,0.35-7.18,0.19-10.76c-0.13-3.07,1.05-3.98,4.03-3.9c16.94,0.46,33,4.22,47.79,12.64c2.45,1.39,4.2,1.3,6.61-0.06
		c14.68-8.3,30.59-12.06,47.38-12.57c3.13-0.09,4.36,0.7,4.26,4.05c-0.11,3.54-0.74,7.15,0.44,10.66c0,0-0.08,0.15-0.08,0.15
		c-0.69-0.01-1.39,0.03-1.49,0.92c-0.12,1.11,0.6,1.34,1.5,1.32l0.15,0.23c-1.3,3.64-0.51,7.41-0.58,11.11
		c-0.14,7.9-0.04,15.79-0.04,23.75c-3.39-0.04-2.84-2.3-2.84-4.18c-0.01-13.69-0.11-27.37,0.07-41.06c0.04-3.24-0.71-4.04-4.04-3.9
		c-15.98,0.66-30.9,4.87-44.73,12.81c-2.46,1.41-4.13,1.47-6.61,0.05c-13.96-8.02-29.03-12.29-45.17-12.85
		c-2.83-0.1-3.66,0.6-3.65,3.46c0.1,24.2,0.12,48.4-0.02,72.6c-0.02,3.07,1.14,3.37,3.72,3.37c9.83-0.01,19.52,1.18,28.99,3.93
		c0.96,0.28,1.95,0.55,2.84,1c0.87,0.45,1.05,1.44,0.77,2.25c-0.33,0.96-1.22,0.47-1.82,0.28c-11.38-3.58-23.03-4.96-34.92-4.46
		c-2.29,0.1-2.53-1.39-2.52-3.12c0.08-15.12,0.16-30.24,0.24-45.35C104.42,64.53,104.41,59.72,103.77,54.91z"/>
	<path class="st21" d="M179.41,89.41c1.45,0.59,1.97-0.84,2.82-1.39c11.05-7.26,25.16-6.42,34.77,2.15
		c9.55,8.51,12.19,22.42,6.44,33.87c-5.72,11.37-18.27,17.29-31.15,14.71c-12.28-2.46-21.64-13.37-22.2-26.33
		c-0.32-7.45,2.09-14.12,7.03-19.83c0.85-0.99,2.54-1.45,2.33-3.22L179.41,89.41z M223.57,111.13
		c-0.04-13.94-11.34-25.2-25.29-25.21c-13.92-0.01-25.19,11.24-25.29,25.23c-0.09,13.84,11.26,25.39,25.09,25.5
		C212.11,136.76,223.61,125.24,223.57,111.13z"/>
	<path class="st21" d="M103.29,46.99c0.72,0.38,1.5,0.78,1.39,1.74c-0.1,0.87-0.94,0.79-1.57,0.94c-5.86,0.22-5.85,0.22-5.85,6.01
		c0,22.18,0.1,44.37-0.09,66.55c-0.03,3.7,1.02,4.45,4.53,4.39c12.96-0.22,25.93,0.02,38.9-0.15c4.54-0.06,8.8,0.57,12.88,2.5
		c-0.03,0.13-0.06,0.25-0.09,0.37c-0.06-0.1-0.11-0.3-0.17-0.3c-18.71,0.09-37.41,0.16-56.12,0.32c-2.14,0.02-2.67-0.83-2.67-2.8
		c0.04-25.64,0.05-51.28,0-76.92c0-2.11,0.8-2.8,2.81-2.68C99.25,47.08,101.27,46.99,103.29,46.99z"/>
	<path class="st21" d="M175.51,83.71c-9.17-0.09-16.36-0.35-23.38-2.18c-1.93-0.5-3.9-1.15-5.61-2.14c-3.67-2.12-3.58-5.12,0.16-7.2
		c3.45-1.91,7.31-2.54,11.16-3.11c11.92-1.75,23.82-1.51,35.67,0.62c1.54,0.28,3.05,0.83,4.54,1.35c2.58,0.9,5.77,1.69,5.46,5.1
		c-0.29,3.15-3.38,4.18-6.05,4.7C189.57,82.4,181.71,84.38,175.51,83.71z M146.89,75.95c9.32,6.85,46.55,6.64,53.55-0.31
		C190.94,69.01,154.88,69.21,146.89,75.95z"/>
	<path class="st21" d="M179.45,89.37c-4.71-0.24-9.42-0.5-14.13-0.72c-6.18-0.29-12.27-1.02-18.01-3.55
		c-1.4,6.05-1.03,6.87,4.68,8.59c6.34,1.91,12.95,2.28,19.54,2.8c-0.09,2.69-1.81,2.58-3.61,2.51c-5.76-0.23-11.41-1.09-16.98-2.57
		c-0.83-0.22-1.71-1.33-2.7-0.24c0,0,0.07,0.07,0.07,0.07c-4.95-2.66-4.76-7.2-4.42-11.85c0.16-2.21,1.27-3.54,3.28-2.54
		c5.28,2.61,10.92,3.55,16.65,3.89c5.56,0.32,11.14,0.07,16.48,0.07c1.03,1.83-2.82,1.73-0.87,3.6
		C179.41,89.41,179.45,89.37,179.45,89.37z"/>
	<path class="st21" d="M150.03,111.91c2.55,2.78,6.15,2.28,9.36,2.95c1.81,0.38,3.71,0.34,5.57,0.5c1.64,0.13,4.08-0.31,3.71,2.21
		c-0.29,2.02-2.41,0.7-3.65,0.61c-3.15-0.21-6.27-0.72-9.42-1c-3.03-0.27-5.71-1.75-8.63-2.46c-0.76,6.71-0.65,7.02,5.63,8.75
		c5.27,1.46,10.69,2.2,16.16,2.28c2.13,0.03,3.99,0.25,4.51,3.13c-8.36-0.48-16.53-0.64-24.28-3.62c-4.52-1.74-7.08-8.53-4.89-12.74
		c1.66-3.18,4.04,0.4,5.97-0.54L150.03,111.91z"/>
	<path class="st21" d="M150.08,111.96c0.46-0.7-0.04-1.09-0.56-1.22c-5.01-1.29-5.91-4.68-5.79-9.43c0.09-3.58,1.06-5.15,4.57-5.07
		c0,0-0.07-0.07-0.07-0.07c2.05,3.07,5.53,2.84,8.52,3.46c3.36,0.69,6.86,0.69,10.28,1.1c0.92,0.11,2.62-0.65,2.49,1.26
		c-0.12,1.7-1.42,1.72-2.88,1.62c-6.6-0.47-13.19-0.95-19.33-3.77c-1.4,6.08-0.98,6.83,4.66,8.64c4.55,1.47,9.3,1.77,14,2.38
		c1.19,0.15,2.43,0.08,2.18,1.82c-0.23,1.61-1.51,1-2.37,0.96c-4.76-0.22-9.42-1.09-14.05-2.16c-0.69-0.16-1.36-0.6-1.69,0.44
		C150.03,111.91,150.08,111.96,150.08,111.96z"/>
	<path class="st21" d="M219.28,47.15c0.68,0.01,1.36,0.02,2.04,0.04c0.36,0.23,0.71,0.46,1.07,0.69c0,14.76,0,29.52,0,44.4
		c-2.17-0.62-2.42-2.37-2.41-4.41c0.06-12.49,0.08-24.97,0.11-37.46C219.82,49.33,219.55,48.24,219.28,47.15z"/>
	<path class="st21" d="M219.28,47.15c0.27,1.09,0.54,2.17,0.81,3.26c-1.86-1.39-4.04-0.26-6.01-0.75c0,0-0.15-0.23-0.15-0.23
		c1.43-0.75,1.44-1.5-0.01-2.24c0,0,0.08-0.15,0.08-0.15C215.75,47.08,217.52,47.11,219.28,47.15z"/>
	<path class="st21" d="M103.77,54.91c0.64,4.81,0.65,9.62,0,14.43C103.39,64.53,103.39,59.72,103.77,54.91z"/>
	<path class="st21" d="M222.39,47.88c-0.36-0.23-0.71-0.46-1.07-0.69C221.92,47.05,222.31,47.22,222.39,47.88z"/>
	<path class="st21" d="M213.91,47.19c1.45,0.74,1.44,1.49,0.01,2.24c-0.9,0.02-1.63-0.21-1.5-1.32
		C212.52,47.22,213.22,47.19,213.91,47.19z"/>
</g>
<path class="st21" d="M183.89,103.45c0.84-1.25,1.63-2.37,2.37-3.53c0.2-0.32,0.46-0.26,0.72-0.26c3.73,0,7.46,0,11.19,0
	c0.21,0,0.41,0,0.69,0c-0.54-1.24-1.43-2.05-2.49-2.69c-1.62-0.97-3.42-1.39-5.29-1.43c-2.3-0.05-4.61-0.01-7.1-0.01
	c0.9-1.35,1.7-2.54,2.49-3.73c0.1-0.15,0.27-0.11,0.41-0.11c8.45,0,16.9,0,25.43,0c-0.59,0.92-1.23,1.8-1.75,2.74
	c-0.43,0.79-0.97,1.06-1.88,1.02c-1.87-0.09-3.75-0.03-5.61-0.03c-0.1,0.23,0.09,0.33,0.18,0.46c0.67,1.05,1.31,2.12,1.58,3.36
	c0.07,0.33,0.23,0.42,0.57,0.42c2.28-0.02,4.57-0.01,6.96-0.01c-0.67,1.03-1.35,1.97-1.9,2.97c-0.36,0.65-0.8,0.88-1.52,0.87
	c-1.14-0.03-2.28,0.03-3.43,0.06c-0.2,0-0.4-0.06-0.47,0.28c-0.81,4.53-3.67,7.24-7.85,8.73c-1.7,0.61-3.49,0.89-5.34,0.98
	c0.06,0.32,0.29,0.5,0.45,0.71c4.53,5.64,9.06,11.28,13.59,16.93c0.12,0.15,0.28,0.3,0.32,0.47c0.08,0.34,0.12,0.64-0.45,0.64
	c-1.62-0.01-3.23,0.04-4.85,0.09c-0.3,0.01-0.51-0.07-0.72-0.31c-4.88-5.8-9.77-11.59-14.67-17.38c-0.18-0.21-0.27-0.42-0.27-0.69
	c0-0.93,0-1.85-0.04-2.78c-0.02-0.38,0.1-0.45,0.46-0.43c2.46,0.18,4.91,0.1,7.31-0.52c2.08-0.54,3.97-1.4,5.26-3.24
	c0.63-0.9,0.92-1.93,1.09-3c0.07-0.45-0.06-0.58-0.53-0.58c-4.7,0.02-9.4,0.01-14.1,0.01C184.49,103.45,184.25,103.45,183.89,103.45
	z"/>
</svg>
