<svg width="39" height="56" viewBox="0 0 39 56" fill="none" xmlns="http://www.w3.org/2000/svg">
<path d="M19.3649 6.23857C22.7049 6.18637 25.4573 8.84663 25.5188 12.1864V19.5861H13.1173V12.2707C13.2478 8.91107 16.0028 6.25109 19.3649 6.23857ZM30.9609 20.1013V11.8399C30.8378 5.5985 25.691 0.631717 19.4492 0.730954C13.2095 0.636882 8.06566 5.60072 7.93754 11.8399V20.1013C4.07492 21.2367 1.41151 24.7676 1.38086 28.7936V45.4944C1.42511 47.9663 2.45168 50.3189 4.2338 52.0325C6.01592 53.746 8.40694 54.6796 10.8787 54.6269H28.1977C33.3277 54.7157 37.5607 50.6336 37.6581 45.5037V28.7936C37.4835 24.7732 34.8038 21.2952 30.9609 20.1013Z" fill="#AFF7F3" stroke="#000001"/>
<path fill-rule="evenodd" clip-rule="evenodd" d="M12.63 20.2699V12.1396C12.8451 8.76581 15.5155 6.06745 18.8869 5.81713V1.23682C16.0748 1.25662 13.3857 2.39277 11.4113 4.3953C9.43683 6.39783 8.3388 9.10271 8.35874 11.9148L8.19014 20.6821C4.62143 21.8342 2.12989 24.1852 2.12989 28.0537V43.977C2.12738 46.3104 3.05511 48.5485 4.70766 50.1958C6.36022 51.843 8.60126 52.7636 10.9346 52.7537H18.9899V20.2699H12.63Z" fill="#FFF2E3"/>
<path d="M27.9631 54.149H11.0094C8.60041 54.2018 6.26937 53.2945 4.52994 51.6271C2.79052 49.9597 1.78548 47.6691 1.73633 45.26V28.9526C1.83371 23.9418 5.97024 19.9561 10.9813 20.0449H27.9631C32.9725 19.9562 37.1063 23.9433 37.1986 28.9526V45.26C37.0412 50.2378 32.9432 54.182 27.9631 54.149Z" fill="#FFF2E3"/>
<path fill-rule="evenodd" clip-rule="evenodd" d="M27.9638 19.9701H11.2349C8.71051 19.8736 6.25855 20.825 4.45986 22.5989C2.66117 24.3728 1.67576 26.8113 1.73707 29.3367V45.5224C1.72971 46.7649 2.00854 47.9924 2.55198 49.1098C10.8883 39.509 19.3558 29.4304 27.9638 19.9701Z" fill="#00ACCD"/>
<path fill-rule="evenodd" clip-rule="evenodd" d="M23.571 42.3657C23.4265 40.2477 21.6662 38.6035 19.5433 38.6035C17.4204 38.6035 15.6602 40.2477 15.5156 42.3657C15.5681 43.8372 16.4553 45.1498 17.8011 45.7471V49.6249H21.4073V45.7471C22.694 45.102 23.5244 43.8043 23.571 42.3657Z" fill="#00ACCD" stroke="#231F20"/>
</svg>
