<?xml version="1.0" encoding="utf-8"?>
<!-- Generator: Adobe Illustrator 24.2.0, SVG Export Plug-In . SVG Version: 6.00 Build 0)  -->
<svg version="1.1" id="Layer_1" xmlns="http://www.w3.org/2000/svg" xmlns:xlink="http://www.w3.org/1999/xlink" x="0px" y="0px"
	 viewBox="0 0 308 308" style="enable-background:new 0 0 308 308;" xml:space="preserve">
<style type="text/css">
	.st0{fill:#2075BC;}
	.st1{fill:url(#SVGID_1_);}
	.st2{fill:url(#SVGID_2_);}
	.st3{fill-rule:evenodd;clip-rule:evenodd;fill:#034EA2;}
	.st4{fill:url(#SVGID_3_);}
	.st5{fill:url(#SVGID_4_);}
	.st6{fill:url(#SVGID_5_);}
	.st7{fill:url(#SVGID_6_);}
	.st8{fill:#393A89;}
	.st9{fill-rule:evenodd;clip-rule:evenodd;fill:#393A89;}
	.st10{fill-rule:evenodd;clip-rule:evenodd;fill:#C9EAF1;}
	.st11{fill-rule:evenodd;clip-rule:evenodd;fill:#3A53A4;}
	.st12{fill-rule:evenodd;clip-rule:evenodd;fill:#ED2224;}
	.st13{fill-rule:evenodd;clip-rule:evenodd;fill:#66CCEC;}
	.st14{fill:#FFFFFF;}
	.st15{fill:#3A53A4;}
	.st16{fill-rule:evenodd;clip-rule:evenodd;fill:#FFFFFF;}
	.st17{fill:#70CDDD;}
	.st18{fill:#010101;}
	.st19{fill-rule:evenodd;clip-rule:evenodd;fill:#010101;}
	.st20{fill:url(#SVGID_7_);}
	.st21{fill:#034EA2;}
	.st22{fill:url(#SVGID_8_);}
	.st23{fill:url(#SVGID_9_);}
	.st24{fill:url(#SVGID_10_);}
	.st25{fill:#F4F4F3;}
	.st26{fill:#1D1D1D;}
	.st27{fill:#171818;}
	.st28{fill:#2EA0C2;}
	.st29{fill:#2B9FC2;}
	.st30{fill:#B62F34;}
	.st31{fill:#B52830;}
	.st32{fill:#262626;}
	.st33{fill:#222323;}
	.st34{fill:#2A2B2B;}
	.st35{fill:#37A2C4;}
	.st36{fill:#C6C7CA;}
	.st37{fill:#323232;}
	.st38{fill:#47A9C9;}
</style>
<circle class="st0" cx="154.36" cy="153.68" r="141.98"/>
<radialGradient id="SVGID_1_" cx="154.3571" cy="153.6786" r="136.4903" gradientUnits="userSpaceOnUse">
	<stop  offset="0" style="stop-color:#E6E6E4"/>
	<stop  offset="0.4135" style="stop-color:#FFFFFF"/>
	<stop  offset="1" style="stop-color:#E6E6E4"/>
</radialGradient>
<circle class="st1" cx="154.36" cy="153.68" r="136.49"/>
<g>
	<path class="st21" d="M130.19,261.37c-17.18-0.35-34.31-1.36-51.1-5.35c-20.82-4.95-23.66-9.85-20.48-30.99
		c2.14-14.26,9.06-23.27,23.51-26.27c6.87-1.42,13.5-3.91,19.23-8.12c2.42-1.77,3.6-1.2,5.27,0.9c5.97,7.51,12.11,14.9,18.21,22.3
		c4.21,5.11,6.84,5.17,11.03,0.11c6.12-7.39,12.2-14.82,18.2-22.31c1.54-1.92,2.61-3.02,5.19-1.11c5.55,4.1,12.08,6.19,18.65,8.11
		c17.99,5.24,23.2,11.76,24.57,30.62c0.2,2.76,0.3,5.53,0.37,8.3c0.24,8.98-1.03,10.95-9.48,14.61c-9.93,4.3-20.53,5.9-31.14,7.24
		C151.61,260.77,140.9,261.25,130.19,261.37z M160.29,235.05c0.16,1.09,0.45,2.16,0.46,3.23c0.03,3.13,0.12,5.88,4.54,5.9
		c4.57,0.02,4.53-2.87,4.23-5.93c-0.36-3.66,1.82-3.8,4.46-3.61c3.21,0.23,5.32-0.66,5.29-4.51c-0.03-3.53-1.9-4.63-4.91-4.27
		c-3.91,0.48-5.31-1.06-4.83-4.9c0.33-2.68-0.44-4.62-3.81-4.69c-3.19-0.06-5.13,1.06-4.88,4.35c0.33,4.25-1.59,5.58-5.53,5.25
		c-2.75-0.23-3.89,1.28-3.91,4.05C151.35,234.73,154.21,236.5,160.29,235.05z"/>
	<path class="st21" d="M128.24,74.39c10.12,0.03,17.98,1.09,25.62,3.42c6.86,2.08,9.04,5.5,7.34,12.53
		c-1.02,4.25-0.95,7.63,2.04,11.21c2.72,3.26,3.75,7.58,4.78,11.71c1.89,7.6,1.4,15.63,5.23,22.97c1.77,3.38,1.19,8.03-0.19,11.96
		c-3.94,11.19-0.22,20.59,6.88,29.05c4.07,4.85,3.97,6.05-2.16,7.4c-9.27,2.04-18.39,1.1-27.17-2.42c-2.91-1.17-5.31-1.31-8.25,0.3
		c-8.04,4.41-16.33,4.23-24.35-0.18c-2.53-1.39-4.61-1.42-7.24-0.37c-9.31,3.75-18.93,4.88-28.77,2.41
		c-4.71-1.18-5.3-2.95-1.96-6.23c6.32-6.22,8.6-14.02,9.34-22.49c0.11-1.27,0.3-2.71-0.17-3.82c-3.28-7.8-3.48-14.91,1.59-22.49
		c2.17-3.25,1.16-8.59,1.71-12.97c0.77-6.15,2.47-12.02,6.81-16.64c2.11-2.24,1.23-4.46,0.77-6.71
		c-2.21-10.83-0.64-13.48,9.95-16.15c2.5-0.63,5.05-1.17,7.6-1.48C121.88,74.89,126.11,74.58,128.24,74.39z M116.66,110.85
		c-1.35,3.62-2.41,6.89-3.78,10.02c-2.53,5.75-6.4,10.31-12.31,12.87c-7.94,3.43-8.84,10.15-2.01,15.59
		c1.84,1.46,2.64,3.47,3.57,5.48c3.8,8.22,9.3,14.99,17.06,19.84c7.47,4.66,14.89,4.69,22.36,0.02c7.93-4.95,13.5-11.91,17.3-20.34
		c0.93-2.07,1.89-3.94,3.75-5.32c3.57-2.66,5.54-8.81,3.08-12.05c-4.96-6.52-9.91-13.07-19.38-13.87
		C135.36,122.15,124.83,119.52,116.66,110.85z M129.53,81.11c-2.96,0.28-6.64,0.58-10.3,1c-1.83,0.21-3.64,0.59-5.43,0.99
		c-8.35,1.86-8.35,1.87-6.58,10.45c0.56,2.71,1.29,5.39,1.68,8.12c0.4,2.85,1.49,3.47,4.38,2.69c7.71-2.09,15.61-2.55,23.6-2.02
		c4.84,0.32,10.85,4.26,13.98,1.3c2.99-2.83,2.4-9.32,3.67-14.12c0.88-3.34-0.44-4.56-3.49-5.44
		C144.21,82.12,137.26,81.49,129.53,81.11z"/>
	<path class="st21" d="M180.38,191.51c11.01-4.02,12.51-10.58,4.38-19.16c-4.73-4.99-5.88-11.25-6.63-19.37
		c5.77,7,10.65,12.89,15.51,18.79c4.89,5.95,7.07,5.96,12.01-0.04c5.87-7.12,11.77-14.22,17.5-21.45c1.75-2.21,2.99-3.01,5.67-1.06
		c6.04,4.41,13.1,6.8,20.31,8.37c13.86,3.02,20.51,12.07,22.08,25.54c0.53,4.58,0.55,9.22,1.16,13.79c0.88,6.62-2.45,10.39-8,12.96
		c-8.29,3.84-17.12,5.55-26.06,6.99c-8.76,1.41-17.59,1.98-26.41,2.69c-2.15,0.17-3.95,0.14-4.55-2.59
		c-2.93-13.37-11.78-20.78-24.59-24.12c-0.53-0.14-1.04-0.39-1.52-0.65C180.9,192.03,180.65,191.75,180.38,191.51z M248.28,188.88
		c0.3-3.19-1.05-5.12-4.41-4.57c-4.44,0.72-5.4-1.3-4.95-5.19c0.34-2.98-1.28-4.32-4.28-4.36c-3.31-0.05-4.9,1.41-4.43,4.68
		c0.55,3.8-0.74,5.44-4.72,4.86c-3.03-0.43-4.93,0.71-5.01,4.19c-0.08,3.75,1.84,5,5.18,4.54c3.63-0.51,5.08,0.86,4.54,4.51
		c-0.5,3.43,0.91,5.22,4.56,5.12c3.45-0.09,4.62-2.08,4.15-5.08c-0.67-4.29,1.51-4.97,5.02-4.55
		C246.92,193.39,248.49,192.05,248.28,188.88z"/>
	<path class="st21" d="M176.43,122.55c2.71,2.63,4.23,4.2,5.85,5.66c12.08,10.9,23.38,10.75,35.17-0.48c3.63-3.46,6.68-7.39,9-11.85
		c1.93-3.7,3.25-7.58,7.4-9.97c3.09-1.77,2.74-10.13-0.28-12.6c-5.54-4.52-10.32-9.48-12.53-16.48c-0.72-2.28-2.02-1.32-3.41-0.64
		c-12.72,6.23-26.08,7.63-39.9,4.99c-2.6-0.5-4.09,0.05-5.04,2.65c-0.67,1.84-1.93,3.47-3.67,6.48c-0.18-7.53-1.86-13.07-7.34-16.64
		c-1.81-1.18-0.76-2.58-0.4-3.92c2.21-8.19,7.46-14,14.83-17.71c14.14-7.13,28.3-7.65,42.06,1.17c1.45,0.93,2.93,1.41,4.55,1.78
		c9.74,2.18,15.31,8.34,16.42,18.29c0.31,2.74,0.43,5.55,0.23,8.3c-0.26,3.71,0.07,6.99,1.92,10.51c3.71,7.02,1.52,15.99-4.55,20.84
		c-1.74,1.39-2.3,3.26-3.22,5.02c-4.95,9.58-11.75,17.4-21.46,22.43c-10.49,5.43-20.62,3.98-29.59-2.95
		C178.54,134.34,177.67,128.74,176.43,122.55z"/>
	<path class="st25" d="M129.53,81.11c7.74,0.39,14.68,1.01,21.49,2.97c3.06,0.88,4.38,2.09,3.49,5.44
		c-1.27,4.8-0.68,11.3-3.67,14.12c-3.13,2.96-9.14-0.98-13.98-1.3c-7.99-0.53-15.89-0.07-23.6,2.02c-2.89,0.78-3.97,0.17-4.38-2.69
		c-0.39-2.73-1.12-5.41-1.68-8.12c-1.76-8.58-1.76-8.59,6.58-10.45c1.8-0.4,3.61-0.78,5.43-0.99
		C122.89,81.68,126.56,81.39,129.53,81.11z M130.42,83.21c-1.48-0.01-8.68,7-8.71,8.47c0,0.18-0.01,0.37,0.01,0.55
		c0.1,1.11,7.51,8.01,8.61,8.02c1.88,0.02,8.75-6.64,8.75-8.49C139.07,90.23,131.98,83.21,130.42,83.21z"/>
	<path class="st21" d="M130.42,83.21c1.55,0.01,8.65,7.02,8.65,8.56c0.01,1.84-6.87,8.51-8.75,8.49c-1.1-0.01-8.5-6.91-8.61-8.02
		c-0.02-0.18-0.01-0.37-0.01-0.55C121.74,90.2,128.94,83.2,130.42,83.21z"/>
</g>
</svg>
