<svg width="47" height="56" viewBox="0 0 47 56" fill="none" xmlns="http://www.w3.org/2000/svg">
<path fill-rule="evenodd" clip-rule="evenodd" d="M23.0025 2.57373C23.0025 2.57373 15.8107 9.75382 0.587891 10.2325L0.947484 29.2597C1.06735 39.4315 7.18043 48.646 16.5299 52.5951C18.4477 53.3131 20.6052 54.1507 23.1224 54.6294C25.6396 54.0311 27.6772 53.3131 29.7149 52.5951C38.9445 48.646 45.0576 39.4315 45.2973 29.2597L45.6569 10.2325C30.1944 9.63416 23.0025 2.57373 23.0025 2.57373Z" fill="#FFF3E3" fill-opacity="0.8" stroke="black"/>
<path fill-rule="evenodd" clip-rule="evenodd" d="M5.02287 42.6626C15.4511 31.5334 25.8793 20.2846 36.0678 8.91615C27.1978 6.64245 23.0025 2.57373 23.0025 2.57373C23.0025 2.57373 15.8107 9.75382 0.587891 10.2325L0.947484 29.2597C0.947484 34.0465 2.38586 38.7135 5.02287 42.6626Z" fill="#61FAFF" fill-opacity="0.5"/>
<path fill-rule="evenodd" clip-rule="evenodd" d="M23.3621 5.44587C23.3621 5.44587 30.2639 12.5063 45.6091 13.1046L45.7902 8.43758C30.3232 7.83923 23.3621 0.778809 23.3621 0.778809C23.3621 0.778809 16.0549 7.9589 0.587891 8.43758L0.709678 13.1046C16.0549 12.5063 23.3621 5.44587 23.3621 5.44587Z" fill="#00ACCD" stroke="black"/>
<path fill-rule="evenodd" clip-rule="evenodd" d="M23.0022 53.7917C23.0022 53.7917 16.2898 37.8758 2.26562 36.9185C4.54305 43.7395 9.69722 49.6033 16.5295 52.4753C18.4473 53.1933 20.6049 54.031 23.122 54.5097C25.6392 53.9113 27.6769 53.1933 29.7146 52.4753C36.5468 49.6033 41.701 43.7395 43.9784 36.9185C29.7146 37.9955 23.0022 53.7917 23.0022 53.7917Z" fill="#00ACCD" stroke="black"/>
<path fill-rule="evenodd" clip-rule="evenodd" d="M20.3658 37.3974L11.9753 29.7386C11.2561 29.1403 11.2561 28.0632 11.8555 27.4649C12.4548 26.7469 13.4137 26.7469 14.1329 27.3452L20.1261 32.7303L33.1913 17.7718C33.7906 17.0538 34.7496 17.0538 35.3489 17.6521C36.0681 18.2504 36.0681 19.3275 35.4687 19.9258L20.3658 37.3974Z" fill="#00ACCD" stroke="black"/>
</svg>
