<?xml version="1.0" encoding="utf-8"?>
<!-- Generator: Adobe Illustrator 24.2.0, SVG Export Plug-In . SVG Version: 6.00 Build 0)  -->
<svg version="1.1" id="Layer_1" xmlns="http://www.w3.org/2000/svg" xmlns:xlink="http://www.w3.org/1999/xlink" x="0px" y="0px"
	 viewBox="0 0 308 308" style="enable-background:new 0 0 308 308;" xml:space="preserve">
<style type="text/css">
	.st0{fill:#2075BC;}
	.st1{fill:url(#SVGID_1_);}
	.st2{fill:url(#SVGID_2_);}
	.st3{fill-rule:evenodd;clip-rule:evenodd;fill:#034EA2;}
	.st4{fill:url(#SVGID_3_);}
	.st5{fill:url(#SVGID_4_);}
	.st6{fill:url(#SVGID_5_);}
	.st7{fill:url(#SVGID_6_);}
	.st8{fill:#393A89;}
	.st9{fill-rule:evenodd;clip-rule:evenodd;fill:#393A89;}
	.st10{fill-rule:evenodd;clip-rule:evenodd;fill:#C9EAF1;}
	.st11{fill-rule:evenodd;clip-rule:evenodd;fill:#3A53A4;}
	.st12{fill-rule:evenodd;clip-rule:evenodd;fill:#ED2224;}
	.st13{fill-rule:evenodd;clip-rule:evenodd;fill:#66CCEC;}
	.st14{fill:#FFFFFF;}
	.st15{fill:#3A53A4;}
	.st16{fill-rule:evenodd;clip-rule:evenodd;fill:#FFFFFF;}
	.st17{fill:#70CDDD;}
	.st18{fill:#010101;}
	.st19{fill-rule:evenodd;clip-rule:evenodd;fill:#010101;}
	.st20{fill:url(#SVGID_7_);}
	.st21{fill:#034EA2;}
	.st22{fill:url(#SVGID_8_);}
	.st23{fill:url(#SVGID_9_);}
	.st24{fill:url(#SVGID_10_);}
	.st25{fill:#F4F4F3;}
	.st26{fill:#1D1D1D;}
	.st27{fill:#171818;}
	.st28{fill:#2EA0C2;}
	.st29{fill:#2B9FC2;}
	.st30{fill:#B62F34;}
	.st31{fill:#B52830;}
	.st32{fill:#262626;}
	.st33{fill:#222323;}
	.st34{fill:#2A2B2B;}
	.st35{fill:#37A2C4;}
	.st36{fill:#C6C7CA;}
	.st37{fill:#323232;}
	.st38{fill:#47A9C9;}
</style>
<circle class="st0" cx="154.36" cy="153.68" r="141.98"/>
<radialGradient id="SVGID_1_" cx="154.3571" cy="153.6786" r="136.4903" gradientUnits="userSpaceOnUse">
	<stop  offset="0" style="stop-color:#E6E6E4"/>
	<stop  offset="0.4135" style="stop-color:#FFFFFF"/>
	<stop  offset="1" style="stop-color:#E6E6E4"/>
</radialGradient>
<circle class="st1" cx="154.36" cy="153.68" r="136.49"/>
<g>
	<path class="st21" d="M184.31,186c-4.05,1.89-7.94,1.53-11.42-1.61c-0.54-0.48-0.77-0.33-1.24,0.06c-4.31,3.62-9.06,3.61-13.4-0.01
		c-0.44-0.37-0.68-0.59-1.24-0.07c-2.98,2.77-6.45,3.39-10.53,2.06c0.33,0.41,0.52,0.65,0.72,0.87c0.21,0.23,0.44,0.44,0.65,0.66
		c3.62,3.76,6.58,7.92,7.55,13.19c0.46,2.51,0.33,5.02-0.28,7.51c-0.21,0.87-0.61,1.04-1.35,0.68c-0.05-0.02-0.1-0.04-0.15-0.05
		c-1.06-0.38-2.44-0.47-3.1-1.21c-0.64-0.72,0.26-2,0.3-3.05c0.15-3.84-1.28-7.14-3.49-10.16c-3.09-4.22-7.12-7.4-11.39-10.33
		c-6.65-4.56-14.2-7.27-21.55-10.81c0,5.79-0.04,11.35,0.01,16.9c0.03,3.4-0.27,6.81,0.17,10.2c0.47,3.56,2.34,6.3,5.18,8.44
		c5.26,3.97,10.49,7.98,15.77,11.92c0.86,0.65,1.25,1.3,1.23,2.41c-0.07,4.02-0.05,8.05-0.01,12.07c0.01,0.91-0.08,1.35-1.21,1.34
		c-3.6-0.03-3.6,0.03-3.6-3.57c0-2.53-0.04-5.06,0.02-7.58c0.02-0.93-0.3-1.47-1.04-2.02c-4.62-3.45-9.17-7.01-13.8-10.44
		c-5.14-3.8-7.64-8.86-7.62-15.23c0.03-9.9-0.01-19.81,0.01-29.71c0.01-6.48,4.45-11.29,10.83-11.84c1.09-0.09,2.17,0.05,3.23,0.23
		c2.17,0.36,2.16,0.4,2.2-1.84c0.08-4.38,2.86-8.07,7.06-9.26c3.44-0.97,6.54-0.19,9.2,2.13c0.72,0.63,1.01,0.6,1.7,0
		c3.97-3.42,9.18-3.39,13.04,0.05c0.6,0.53,0.89,0.64,1.56,0.05c3.96-3.51,9.18-3.53,13.17-0.05c0.67,0.58,0.96,0.54,1.58,0
		c3.23-2.79,6.91-3.42,10.75-1.58c3.77,1.81,5.6,4.98,5.57,9.22c-0.04,4.54-0.15,9.08,0.02,13.62c0.52,14.64-0.27,29.27-0.16,43.9
		c0.02,2.54-0.28,5.03-1.21,7.42c-1.44,3.68-4.05,6.17-7.78,7.38c-1,0.33-1.24,0.76-1.22,1.71c0.06,2.11-0.01,4.23,0.03,6.34
		c0.02,0.78-0.15,1.05-1.01,1.07c-3.91,0.11-3.91,0.14-3.91-3.75c0-2.73,0.04-5.47-0.02-8.2c-0.02-1.05,0.21-1.49,1.35-1.4
		c4.3,0.33,8.56-2.27,8.73-8.29C184.51,205.59,184.31,195.79,184.31,186z M143.13,175.67c2.68,0,5.37,0.15,8.04-0.04
		c3.72-0.27,6.55-1.97,7.82-5.7c0.56-1.63,0.51-1.68-1.24-1.99c-11.84-2.11-23.68-4.22-35.51-6.35c-3.28-0.59-6.59,1.42-7.56,4.63
		c-0.32,1.06-0.29,2.13-0.29,3.21c0,3.05-0.01,3.1,2.98,3.63C125.9,174.57,134.43,176.07,143.13,175.67z M174.73,166.18
		c0,3.56-0.01,7.11,0,10.67c0.01,3.2,1.98,5.35,4.89,5.36c2.92,0.01,4.96-2.15,4.97-5.3c0.02-7.11,0.02-14.22,0-21.33
		c-0.01-3.12-2.1-5.32-4.99-5.3c-2.81,0.02-4.85,2.2-4.86,5.25C174.72,159.07,174.73,162.63,174.73,166.18z M169.82,166.21
		c0-3.6,0.01-7.21-0.01-10.81c0-0.61,0-1.21-0.23-1.82c-0.86-2.28-2.92-3.59-5.32-3.29c-2.36,0.29-4.12,2.26-4.26,4.92
		c-0.09,1.64-0.02,3.29-0.02,4.94c0,3.16-0.01,3.18,3.17,3.79c0.91,0.17,1.27,0.58,1.3,1.5c0.14,4.12-0.89,7.84-3.75,10.91
		c-0.55,0.59-0.75,1.11-0.58,1.91c0.53,2.51,2.6,4.09,5.28,3.92c2.44-0.16,4.37-2.17,4.4-4.7
		C169.85,173.73,169.82,169.97,169.82,166.21z M155.19,158.59c0-1.27,0.03-2.3-0.01-3.33c-0.1-2.9-2.22-5-4.98-4.99
		c-2.76,0.02-4.83,2.16-4.87,5.07c-0.02,1.44,0.08,2.89-0.03,4.32c-0.08,0.99,0.37,1.23,1.17,1.35c1.52,0.23,3.04,0.49,4.55,0.76
		c1.31,0.23,2.99,1.13,3.83,0.49C155.83,161.53,155.02,159.69,155.19,158.59z M140.41,156.9c0-0.67,0.02-1.34,0-2
		c-0.08-2.09-1.52-3.89-3.58-4.49c-1.89-0.55-4.15,0.27-5.3,1.91c-1.02,1.44-0.91,3.1-0.95,4.74c-0.02,0.82,0.23,1.17,1.1,1.28
		c1.93,0.26,3.84,0.63,5.75,0.99C140.42,159.91,140.42,159.93,140.41,156.9z M154.26,180.04c-2.51,0.74-4.92,0.53-7.41,0.64
		C149.06,182.98,152.13,182.74,154.26,180.04z"/>
	<path class="st21" d="M130.15,65.91c7.15-0.11,14.3-0.16,21.44,0.03c1.61,0.26,3.21,0.26,4.82,0c4.42-0.04,8.84-0.09,13.27-0.1
		c2.73-0.01,5.45,0.05,8.18,0.07c0.2,0.06,0.4,0.12,0.6,0.18c1.58,0.34,1.91,1.48,1.91,2.88c-0.01,9.08-0.01,18.15-0.01,27.23
		c0,4.13-0.03,8.25,0.02,12.38c0.01,0.95-0.24,1.2-1.19,1.19c-7.07-0.04-14.13,0.02-21.2-0.06c-1.34-0.02-1.57,0.39-1.56,1.62
		c0.06,6.65,0.01,13.31,0.05,19.96c0.01,1.03-0.19,1.41-1.32,1.39c-3.62-0.05-3.62,0-3.62-3.56c0-5.93-0.04-11.86,0.03-17.79
		c0.01-1.24-0.22-1.64-1.56-1.62c-7.01,0.08-14.03,0.01-21.04,0.06c-1.08,0.01-1.36-0.26-1.35-1.35c0.04-13.15,0.03-26.3,0.02-39.45
		c0-1.41,0.33-2.55,1.91-2.88C129.75,66.03,129.95,65.97,130.15,65.91z M175.64,71.12c-0.08-0.13-0.16-0.27-0.24-0.4
		c-14.27,0-28.54,0-42.8,0c-0.08,0.13-0.16,0.27-0.24,0.4c0.03,8.32,0.06,16.65,0.08,24.97c0,2.67-0.05,5.34-0.08,8.01
		c0.03,0.22,0.06,0.45,0.1,0.67c0.18,0.06,0.36,0.13,0.54,0.19c0.4,0.05,0.81,0.13,1.21,0.13c13.19,0.01,26.39,0.01,39.58,0
		c0.4,0,0.81-0.09,1.21-0.13c0.18-0.06,0.36-0.13,0.54-0.19c0.03-0.22,0.06-0.45,0.1-0.67c-0.03-5.6-0.08-11.2-0.08-16.8
		C175.57,81.91,175.62,76.51,175.64,71.12z"/>
	<path class="st21" d="M245.65,90.19c1.31,0.39,1.91,1.28,1.91,2.63c-0.01,13.35-0.02,26.7,0.02,40.05c0,1.17-0.57,1.05-1.31,1.05
		c-10.36-0.01-20.72,0.01-31.09-0.03c-1.01,0-1.72,0.29-2.42,1c-4.53,4.58-9.11,9.11-13.63,13.7c-0.75,0.76-1.15,0.99-2.01,0.07
		c-2.44-2.58-2.49-2.54,0.04-5.07c3.13-3.13,6.27-6.26,9.4-9.37c-0.23-0.55-0.65-0.29-0.95-0.3c-3.25-0.02-6.5-0.04-9.74,0
		c-0.78,0.01-1.06-0.17-1.05-1.01c0.03-13.35,0.02-26.7,0.02-40.05c0-1.33,0.56-2.26,1.87-2.67c8.34-0.02,16.68-0.05,25.02-0.05
		C229.69,90.15,237.67,90.18,245.65,90.19z M221.26,94.9c-6.7,0-13.4,0.02-20.1-0.02c-1.07-0.01-1.52,0.14-1.52,1.39
		c0.05,10.51,0.04,21.03,0.01,31.54c0,0.97,0.21,1.34,1.28,1.33c13.5-0.04,27.01-0.04,40.51,0c1.13,0,1.35-0.38,1.35-1.41
		c-0.03-10.46-0.04-20.92,0-31.38c0-1.12-0.23-1.48-1.43-1.47C234.66,94.93,227.96,94.9,221.26,94.9z"/>
	<path class="st21" d="M111.31,90.2c1.31,0.4,1.87,1.33,1.87,2.66c0,13.35-0.01,26.7,0.02,40.05c0,0.83-0.26,1.03-1.05,1.02
		c-3.54-0.04-7.07-0.02-11.02-0.02c1.29,1.28,2.33,2.31,3.37,3.34c2.7,2.69,5.38,5.4,8.11,8.08c0.59,0.58,0.68,0.91,0.03,1.58
		c-2.68,2.74-2.65,2.77-5.37,0.04c-4.01-4.01-8.03-8.01-12.01-12.05c-0.7-0.71-1.4-1.01-2.42-1.01c-10.26,0.04-20.52,0-30.77,0.05
		c-1.2,0.01-1.64-0.16-1.64-1.53c0.06-13.04,0.04-26.08,0.02-39.12c0-1.48,0.35-2.64,1.92-3.1C78.67,90.2,94.99,90.2,111.31,90.2z
		 M86.85,94.9c-6.75,0-13.5,0.02-20.25-0.02c-1.08-0.01-1.38,0.28-1.38,1.37c0.04,10.51,0.04,21.03,0,31.54
		c0,1.12,0.36,1.36,1.41,1.36c13.45-0.03,26.9-0.03,40.36,0c1.09,0,1.38-0.31,1.38-1.39c-0.04-10.51-0.04-21.03,0-31.54
		c0-1.13-0.38-1.34-1.41-1.34C100.25,94.92,93.55,94.9,86.85,94.9z"/>
	<path class="st21" d="M155.71,243.39c9.95,0,19.9,0.02,29.85-0.03c1.22-0.01,1.64,0.19,1.63,1.54
		c-0.07,10.67-0.05,21.35-0.01,32.02c0,1.17-0.24,1.53-1.48,1.53c-20.11-0.04-40.22-0.05-60.33,0c-1.33,0-1.6-0.39-1.59-1.63
		c0.05-10.62,0.05-21.24,0-31.86c-0.01-1.3,0.34-1.61,1.61-1.6C135.5,243.41,145.6,243.39,155.71,243.39z M155.39,273.51
		c8.51,0,17.01-0.01,25.52,0.02c0.98,0,1.44-0.09,1.43-1.28c-0.06-7.58-0.05-15.16-0.01-22.74c0.01-1.09-0.3-1.36-1.38-1.36
		c-16.96,0.04-33.92,0.04-50.89,0c-1.19,0-1.44,0.33-1.44,1.47c0.05,7.47,0.06,14.95-0.01,22.43c-0.01,1.29,0.42,1.49,1.56,1.48
		C138.58,273.49,146.99,273.51,155.39,273.51z"/>
	<path class="st21" d="M156.42,65.94c-1.61,0.26-3.21,0.26-4.82,0c0.18-0.4-0.14-0.39-0.37-0.44c-7.51-1.67-12.99-7.96-13.62-15.6
		c-0.42-5.11,0.65-9.81,3.79-13.95c6.03-7.94,17.08-8.59,24-1.4c8.6,8.94,5.97,24.73-4.96,29.8c-1.12,0.52-2.27,0.94-3.5,1.14
		C156.7,65.52,156.24,65.39,156.42,65.94z M154.61,60.89c0.82,0.03,2.21-0.27,3.54-0.87c8.13-3.63,10.08-15.53,3.64-22.17
		c-4.4-4.55-11.14-4.57-15.55-0.05c-4.96,5.07-5.21,13.8-0.51,19.17C147.9,59.44,150.61,60.87,154.61,60.89z"/>
	<path class="st21" d="M218.35,89.64c-4.58-0.81-8-3.38-10.51-7.18c-4.63-6.98-4.1-16.43,1.2-22.89c6.02-7.32,16.64-7.82,23.31-1.09
		c8.25,8.32,6.78,22.89-2.95,29.09c-1.66,1.06-3.43,1.85-5.41,2.08C222.11,90.08,220.23,90.05,218.35,89.64z M221.33,58.61
		c-2.41-0.05-4.55,0.72-6.46,2.14c-5.89,4.38-7.08,13.54-2.56,19.63c4.66,6.29,13.19,6.26,17.82-0.06
		c3.47-4.75,3.65-11.47,0.39-16.37C228.34,60.67,225.35,58.75,221.33,58.61z"/>
	<path class="st21" d="M84.01,89.65c-4.42-0.73-7.74-3.18-10.28-6.75c-5.18-7.28-4.41-17.84,1.71-24.19
		c6.31-6.55,16-6.67,22.47-0.27c8.89,8.8,6.45,24.79-4.6,30.06c-1.16,0.55-2.35,1.03-3.65,1.14C87.78,90.03,85.9,90.09,84.01,89.65z
		 M98.43,71.92c0.07-3.24-0.94-6.5-3.29-9.31c-4.17-5.01-11.29-5.35-15.94-0.78c-5.38,5.28-5.38,14.74,0,20.04
		c4.4,4.34,10.95,4.31,15.3-0.11C97.08,79.15,98.29,75.95,98.43,71.92z"/>
	<path class="st21" d="M84.01,89.65c1.88,0.44,3.76,0.38,5.65,0c0.4,0.5,0.95,0.26,1.43,0.26c6.15,0.02,12.29,0.01,18.44,0.02
		c0.6,0,1.24-0.17,1.77,0.28c-16.32,0-32.63-0.01-48.95-0.01c0.53-0.47,1.18-0.26,1.77-0.26c6.1-0.01,12.2,0,18.3-0.02
		C82.96,89.91,83.56,90.18,84.01,89.65z"/>
	<path class="st21" d="M218.35,89.64c1.88,0.41,3.76,0.44,5.64,0c0.45,0.53,1.06,0.26,1.58,0.26c6.15,0.02,12.31,0.01,18.46,0.02
		c0.54,0,1.14-0.18,1.62,0.26c-7.98-0.01-15.96-0.04-23.94-0.04c-8.34,0-16.68,0.03-25.02,0.05c0.53-0.45,1.18-0.27,1.77-0.28
		c6.15-0.01,12.3,0,18.45-0.02C217.4,89.9,217.95,90.15,218.35,89.64z"/>
	<path class="st21" d="M178.46,66.09c-0.2-0.06-0.4-0.12-0.6-0.18C178.1,65.82,178.29,65.92,178.46,66.09z"/>
	<path class="st21" d="M130.15,65.91c-0.2,0.06-0.4,0.12-0.6,0.18C129.72,65.92,129.91,65.82,130.15,65.91z"/>
	<path class="st21" d="M154.26,180.04c-2.13,2.71-5.2,2.94-7.41,0.64C149.34,180.56,151.75,180.78,154.26,180.04z"/>
	<path class="st21" d="M133,104.96c0.36-0.03,0.71-0.09,1.07-0.09c13.29,0,26.58,0,39.87,0c0.36,0,0.71,0.06,1.07,0.09
		c-0.4,0.05-0.81,0.13-1.21,0.13c-13.19,0.01-26.39,0.01-39.58,0C133.81,105.09,133.4,105,133,104.96z"/>
	<path class="st21" d="M175.55,104.77c0.03-0.22,0.06-0.45,0.1-0.67C175.62,104.32,175.58,104.54,175.55,104.77z"/>
	<path class="st21" d="M132.36,104.1c0.03,0.22,0.06,0.45,0.1,0.67C132.42,104.54,132.39,104.32,132.36,104.1z"/>
	<path class="st21" d="M175.64,71.12c-0.08-0.13-0.16-0.27-0.24-0.4C175.48,70.85,175.56,70.99,175.64,71.12z"/>
	<path class="st21" d="M132.6,70.72c-0.08,0.13-0.16,0.27-0.24,0.4C132.44,70.99,132.52,70.85,132.6,70.72z"/>
</g>
</svg>
