<?xml version="1.0" encoding="UTF-8"?>
<svg version="1.1" xmlns="http://www.w3.org/2000/svg" width="139" height="46">
<path d="M0 0 C3.08283443 -0.14554346 6.16478439 -0.23413821 9.25 -0.3125 C10.12269531 -0.35439453 10.99539062 -0.39628906 11.89453125 -0.43945312 C18.35655511 -0.56277419 18.35655511 -0.56277419 21.6171875 2.2890625 C23.48029324 5.94159182 23.03165539 8.09444746 22 12 C21.34 12.66 20.68 13.32 20 14 C20.99 15.485 20.99 15.485 22 17 C22.125 20.1875 22.125 20.1875 22 23 C22.66 23.33 23.32 23.66 24 24 C24.625 26.5625 24.625 26.5625 25 29 C22.69 28.67 20.38 28.34 18 28 C17.34 24.7 16.68 21.4 16 18 C12.7 17.67 9.4 17.34 6 17 C6.33 20.96 6.66 24.92 7 29 C4.69 29 2.38 29 0 29 C-0.1969993 24.9170667 -0.38095476 20.83364734 -0.5625 16.75 C-0.61857422 15.59113281 -0.67464844 14.43226562 -0.73242188 13.23828125 C-0.78076172 12.12324219 -0.82910156 11.00820312 -0.87890625 9.859375 C-0.9260376 8.83295898 -0.97316895 7.80654297 -1.02172852 6.74902344 C-1.00222257 4.28119317 -0.72799029 2.34329535 0 0 Z M6 4 C6 6.64 6 9.28 6 12 C7.62463842 12.05395478 9.24978541 12.09277195 10.875 12.125 C11.77992187 12.14820313 12.68484375 12.17140625 13.6171875 12.1953125 C16.18806994 12.24324836 16.18806994 12.24324836 18 10 C17.71016731 6.69316534 17.71016731 6.69316534 16 4 C14.31391034 3.92794489 12.62499341 3.91613932 10.9375 3.9375 C10.01839844 3.94652344 9.09929688 3.95554688 8.15234375 3.96484375 C7.44207031 3.97644531 6.73179688 3.98804688 6 4 Z " fill="#1FB3A2" transform="translate(24,0)"/>
<path d="M0 0 C1.66611905 -0.042721 3.33382885 -0.04063832 5 0 C6 1 6 1 6.02734375 4.89453125 C5.98911757 7.36313782 5.9370268 9.8307541 5.87304688 12.29882812 C5.86208984 13.09353516 5.85113281 13.88824219 5.83984375 14.70703125 C5.82300537 15.4338208 5.80616699 16.16061035 5.78881836 16.90942383 C6.03175801 19.31438591 6.80823272 20.91536244 8 23 C10.64 23 13.28 23 16 23 C17.67128932 20.05618512 18.27731759 17.82616606 18.4140625 14.453125 C18.45273438 13.60878906 18.49140625 12.76445312 18.53125 11.89453125 C18.5621875 11.02183594 18.593125 10.14914062 18.625 9.25 C18.66367188 8.36183594 18.70234375 7.47367187 18.7421875 6.55859375 C18.83620873 4.3726002 18.92186143 2.18660938 19 0 C20.65 0 22.3 0 24 0 C24.11689626 3.37470504 24.18747934 6.7488843 24.25 10.125 C24.30027344 11.55199219 24.30027344 11.55199219 24.3515625 13.0078125 C24.43524867 19.03321671 24.00439091 22.40650875 20 27 C16.58489731 29.59076756 13.16827596 29.35933413 9 29 C5.3167386 27.7250249 3.52298555 26.77771028 1.33984375 23.53125 C-0.45752459 18.79416261 -0.32699462 14.63965278 -0.1875 9.625 C-0.17396484 8.69816406 -0.16042969 7.77132813 -0.14648438 6.81640625 C-0.11133881 4.54366002 -0.06214132 2.27214153 0 0 Z " fill="#54C5B9" transform="translate(50,0)"/>
<path d="M0 0 C4.64360286 0.1112846 8.03099208 0.34024993 11.9375 3 C15.3740528 7.99862225 16 13.01673748 16 19 C14.66666667 19.66666667 13.33333333 20.33333333 12 21 C11.401875 21.391875 10.80375 21.78375 10.1875 22.1875 C6.78576529 23.45100146 4.47164332 22.91359035 1 22 C-2.51038651 19.40536649 -3.77811815 17.76271886 -5 13.5625 C-5 9.46850463 -4.08671395 7.47785658 -2 4 C-1.32475751 2.67098916 -0.65632887 1.33845233 0 0 Z M1.1875 6.4375 C-0.10084721 7.80560373 -0.10084721 7.80560373 0 9 C3.3 9 6.6 9 10 9 C9.34 7.68 8.68 6.36 8 5 C4.30520544 4.66122453 4.30520544 4.66122453 1.1875 6.4375 Z M0 13 C0.66 14.65 1.32 16.3 2 18 C4.31 18 6.62 18 9 18 C9.33 17.01 9.66 16.02 10 15 C11.65 14.67 13.3 14.34 15 14 C15 13.67 15 13.34 15 13 C10.05 13 5.1 13 0 13 Z " fill="#3E5DA4" transform="translate(93,6)"/>
<path d="M0 0 C0.66 0.33 1.32 0.66 2 1 C4.27632724 1.03023585 6.53422718 0.93351618 8.80859375 0.83984375 C11 1 11 1 14 3 C14 3.66 14 4.32 14 5 C14.66 5.33 15.32 5.66 16 6 C15.67 6.66 15.34 7.32 15 8 C12.9375 8.625 12.9375 8.625 11 9 C11.845625 9.70125 12.69125 10.4025 13.5625 11.125 C16 14 16 14 16.1875 17.125 C15 20 15 20 12.375 21.9375 C8.37390619 23.19710361 6.04345102 23.04830212 2 22 C-0.4375 20.6875 -0.4375 20.6875 -2 19 C-2 17.68 -2 16.36 -2 15 C0.475 15.495 0.475 15.495 3 16 C3 16.66 3 17.32 3 18 C6.465 17.505 6.465 17.505 10 17 C10 16.34 10 15.68 10 15 C9.21753906 14.81824219 8.43507813 14.63648438 7.62890625 14.44921875 C6.61699219 14.19785156 5.60507813 13.94648438 4.5625 13.6875 C3.55316406 13.44386719 2.54382813 13.20023438 1.50390625 12.94921875 C0.26447266 12.47935547 0.26447266 12.47935547 -1 12 C-2.36088895 7.91733314 -1.68398693 5.24071899 -1 1 C-0.67 0.67 -0.34 0.34 0 0 Z M4 5 C3.67 5.99 3.34 6.98 3 8 C5.97 8.495 5.97 8.495 9 9 C9 7.68 9 6.36 9 5 C7.35 5 5.7 5 4 5 Z " fill="#2B4D9B" transform="translate(111,6)"/>
<path d="M0 0 C7.59 0 15.18 0 23 0 C23 1.32 23 2.64 23 4 C20.03 4 17.06 4 14 4 C14 11.92 14 19.84 14 28 C12.35 28 10.7 28 9 28 C9 20.08 9 12.16 9 4 C6.03 4 3.06 4 0 4 C0 2.68 0 1.36 0 0 Z " fill="#29B6A6" transform="translate(0,0)"/>
<path d="M0 0 C1.65 0 3.3 0 5 0 C5 1.98 5 3.96 5 6 C6.32 6 7.64 6 9 6 C9 7.32 9 8.64 9 10 C7.68 10 6.36 10 5 10 C5 14.29 5 18.58 5 23 C6.32 23 7.64 23 9 23 C9 24.32 9 25.64 9 27 C5.625 27.1875 5.625 27.1875 2 27 C-0.49118953 23.2632157 -0.2065226 21.25548181 -0.125 16.8125 C-0.10695312 15.54019531 -0.08890625 14.26789062 -0.0703125 12.95703125 C-0.04710937 11.98121094 -0.02390625 11.00539063 0 10 C-0.99 10 -1.98 10 -3 10 C-3 8.68 -3 7.36 -3 6 C-2.01 6 -1.02 6 0 6 C0 4.02 0 2.04 0 0 Z " fill="#4863A7" transform="translate(130,1)"/>
<path d="M0 0 C1.65 0.33 3.3 0.66 5 1 C5 2.32 5 3.64 5 5 C5.99 5.33 6.98 5.66 8 6 C8 7.32 8 8.64 8 10 C7.01 10.33 6.02 10.66 5 11 C5 14.63 5 18.26 5 22 C5.99 22.33 6.98 22.66 8 23 C8 24.32 8 25.64 8 27 C5.125 27.125 5.125 27.125 2 27 C0 25 0 25 -0.1953125 21.5234375 C-0.18201493 20.14049032 -0.15816232 18.75761346 -0.125 17.375 C-0.11597656 16.66859375 -0.10695313 15.9621875 -0.09765625 15.234375 C-0.07407603 13.48943902 -0.03820461 11.74467705 0 10 C-1.32 10.33 -2.64 10.66 -4 11 C-4 9.02 -4 7.04 -4 5 C-2.68 5.33 -1.36 5.66 0 6 C0 4.02 0 2.04 0 0 Z " fill="#2E4B94" transform="translate(79,1)"/>
<path d="M0 0 C6.27 0 12.54 0 19 0 C19.33 0.66 19.66 1.32 20 2 C16.78817851 3.90608098 14.46117397 4.22266247 10.75 4.125 C9.85796875 4.10695313 8.9659375 4.08890625 8.046875 4.0703125 C7.03367187 4.03550781 7.03367187 4.03550781 6 4 C6 6.64 6 9.28 6 12 C8.97 12 11.94 12 15 12 C15 12.33 15 12.66 15 13 C11.7 13 8.4 13 5 13 C4.67 10.03 4.34 7.06 4 4 C4 11.92 4 19.84 4 28 C2.68 28.33 1.36 28.66 0 29 C-0.1969993 24.9170667 -0.38095476 20.83364734 -0.5625 16.75 C-0.61857422 15.59113281 -0.67464844 14.43226562 -0.73242188 13.23828125 C-0.78076172 12.12324219 -0.82910156 11.00820312 -0.87890625 9.859375 C-0.9260376 8.83295898 -0.97316895 7.80654297 -1.02172852 6.74902344 C-1 4 -1 4 0 0 Z " fill="#52C9B1" transform="translate(24,0)"/>
<path d="M0 0 C4.73741162 0.11353274 8.05844192 0.33306303 12 3.125 C14 6 14 6 15 13 C10.05 13 5.1 13 0 13 C0 12.01 0 11.02 0 10 C3.63 10 7.26 10 11 10 C10.01 8.68 9.02 7.36 8 6 C4.37436186 5.66619186 4.37436186 5.66619186 1 6 C0.34 7.32 -0.32 8.64 -1 10 C-1.66 10 -2.32 10 -3 10 C-3.26046037 6.87447554 -3.27021697 5.40532546 -1.5 2.75 C-1.005 2.1725 -0.51 1.595 0 1 C0 0.67 0 0.34 0 0 Z " fill="#274797" transform="translate(93,6)"/>
<path d="M0 0 C0.66 0.33 1.32 0.66 2 1 C4.27632724 1.03023585 6.53422718 0.93351618 8.80859375 0.83984375 C11 1 11 1 14 3 C14 3.66 14 4.32 14 5 C14.66 5.33 15.32 5.66 16 6 C15.67 6.66 15.34 7.32 15 8 C11.9375 8.625 11.9375 8.625 9 9 C9 8.01 9 7.02 9 6 C6.69 6 4.38 6 2 6 C2 7.32 2 8.64 2 10 C1.67 10.66 1.34 11.32 1 12 C0.01 12 -0.98 12 -2 12 C-2.17835515 7.45194365 -1.99785435 4.1205746 0 0 Z " fill="#425DA5" transform="translate(111,6)"/>
<path d="M0 0 C1.35439668 2.70879335 1.06501451 5.00933268 1 8 C1.66 8.33 2.32 8.66 3 9 C3.625 11.5625 3.625 11.5625 4 14 C1.69 13.67 -0.62 13.34 -3 13 C-3.66 9.7 -4.32 6.4 -5 3 C-8.3 2.67 -11.6 2.34 -15 2 C-14.67 5.96 -14.34 9.92 -14 14 C-14.66 14 -15.32 14 -16 14 C-16 9.71 -16 5.42 -16 1 C-14.288125 0.835 -12.57625 0.67 -10.8125 0.5 C-9.84957031 0.4071875 -8.88664062 0.314375 -7.89453125 0.21875 C-5.24812333 0.01875156 -2.65239135 -0.03879183 0 0 Z " fill="#51C3B8" transform="translate(45,15)"/>
<path d="M0 0 C1.32 0 2.64 0 4 0 C4.08703823 3.43734063 4.14040272 6.87439837 4.1875 10.3125 C4.22520508 11.77719727 4.22520508 11.77719727 4.26367188 13.27148438 C4.27817383 14.67817383 4.27817383 14.67817383 4.29296875 16.11328125 C4.3086792 16.97735596 4.32438965 17.84143066 4.34057617 18.73168945 C3.93240678 21.45018536 3.10407096 22.30363829 1 24 C-0.29235715 19.08497242 -0.11135517 14.22709898 -0.0625 9.1875 C-0.05798828 8.30384766 -0.05347656 7.42019531 -0.04882812 6.50976562 C-0.03709866 4.33981441 -0.01916495 2.16989828 0 0 Z " fill="#2BB7A7" transform="translate(70,0)"/>
<path d="M0 0 C2.475 0.495 2.475 0.495 5 1 C5.66 0.67 6.32 0.34 7 0 C7.99 0.33 8.98 0.66 10 1 C10.33 4.63 10.66 8.26 11 12 C4.375 12.125 4.375 12.125 1 11 C0.67 7.37 0.34 3.74 0 0 Z M5 2 C5.33 2.66 5.66 3.32 6 4 C6.33 3.34 6.66 2.68 7 2 C6.34 2 5.68 2 5 2 Z M6 4 C7 6 7 6 7 6 Z M4 7 C4 8.32 4 9.64 4 11 C4.66 11 5.32 11 6 11 C5.34 9.68 4.68 8.36 4 7 Z " fill="#828281" transform="translate(56,32)"/>
<path d="M0 0 C2.5 0.125 2.5 0.125 5 1 C6.4375 2.75 6.4375 2.75 7 5 C6.125 7.75 6.125 7.75 5 10 C3.00045254 10.04254356 0.99958364 10.04080783 -1 10 C-2 9 -2 9 -2.1875 5.5625 C-2 2 -2 2 0 0 Z M1 3 C1.33 3.66 1.66 4.32 2 5 C2.33 4.34 2.66 3.68 3 3 C2.34 3 1.68 3 1 3 Z " fill="#474746" transform="translate(46,33)"/>
<path d="M0 0 C1.299375 0.309375 2.59875 0.61875 3.9375 0.9375 C5.03384766 1.19853516 5.03384766 1.19853516 6.15234375 1.46484375 C8 2 8 2 9 3 C9.1875 5.9375 9.1875 5.9375 9 9 C7 11 7 11 3.875 11.125 C2.451875 11.063125 2.451875 11.063125 1 11 C0.67 7.37 0.34 3.74 0 0 Z M4 4 C4 5.65 4 7.3 4 9 C4.66 9 5.32 9 6 9 C6 7.35 6 5.7 6 4 C5.34 4 4.68 4 4 4 Z " fill="#525250" transform="translate(8,32)"/>
<path d="M0 0 C5.28 0 10.56 0 16 0 C16.33 0.66 16.66 1.32 17 2 C13.78817851 3.90608098 11.46117397 4.22266247 7.75 4.125 C6.85796875 4.10695313 5.9659375 4.08890625 5.046875 4.0703125 C4.03367187 4.03550781 4.03367187 4.03550781 3 4 C3 6.64 3 9.28 3 12 C5.97 12 8.94 12 12 12 C12 12.33 12 12.66 12 13 C8.7 13 5.4 13 2 13 C1.77213542 10.78645833 1.54427083 8.57291667 1.31640625 6.359375 C1.00488803 3.70381637 1.00488803 3.70381637 0 0 Z " fill="#45C2B5" transform="translate(27,0)"/>
<path d="M0 0 C3 1 3 1 4.16796875 3.28515625 C5.11197917 5.85677083 6.05598958 8.42838542 7 11 C3.04 11 -0.92 11 -5 11 C-4.67 9.35 -4.34 7.7 -4 6 C-3.34 6 -2.68 6 -2 6 C-1.34 4.02 -0.68 2.04 0 0 Z M0 8 C0.66 8.66 1.32 9.32 2 10 C2 9.34 2 8.68 2 8 C1.34 8 0.68 8 0 8 Z " fill="#6A6A6A" transform="translate(34,33)"/>
<path d="M0 0 C1.65 0.33 3.3 0.66 5 1 C5.84454356 4.37817425 6.10844919 6.67465243 5 10 C3.02 10 1.04 10 -1 10 C-2.1875 7.8125 -2.1875 7.8125 -3 5 C-1.625 2.1875 -1.625 2.1875 0 0 Z " fill="#6B6B69" transform="translate(133,33)"/>
<path d="M0 0 C0.66 0 1.32 0 2 0 C4.05164237 3.46214649 4 4.59389235 4 9 C-0.95 9 -5.9 9 -11 9 C-11 8.01 -11 7.02 -11 6 C-7.37 6 -3.74 6 0 6 C-0.33 4.68 -0.66 3.36 -1 2 C-0.67 1.34 -0.34 0.68 0 0 Z " fill="#224396" transform="translate(104,10)"/>
<path d="M0 0 C1.9375 0.8125 1.9375 0.8125 3.9375 3.8125 C3.39695946 8.35304054 3.39695946 8.35304054 1.9375 9.8125 C-0.5 10 -0.5 10 -3.0625 9.8125 C-5.0625 7.8125 -5.0625 7.8125 -5.375 4.8125 C-5.271875 3.8225 -5.16875 2.8325 -5.0625 1.8125 C-2.0625 -0.1875 -2.0625 -0.1875 0 0 Z M-2.0625 2.8125 C-2.0625 4.4625 -2.0625 6.1125 -2.0625 7.8125 C-1.4025 7.4825 -0.7425 7.1525 -0.0625 6.8125 C-0.0625 5.4925 -0.0625 4.1725 -0.0625 2.8125 C-0.7225 2.8125 -1.3825 2.8125 -2.0625 2.8125 Z " fill="#626260" transform="translate(76.0625,33.1875)"/>
<path d="M0 0 C0.33 0 0.66 0 1 0 C1.06058594 1.30195313 1.12117188 2.60390625 1.18359375 3.9453125 C1.26804562 5.67188399 1.35269126 7.398446 1.4375 9.125 C1.47681641 9.9809375 1.51613281 10.836875 1.55664062 11.71875 C1.78156402 16.21721792 2.13540883 20.56806207 3 25 C-1.51350747 28.52273754 -4.28341664 29.45732667 -10 29 C-10 28.67 -10 28.34 -10 28 C-8.02 28 -6.04 28 -4 28 C-1.48822949 21.58232448 -0.49899288 15.80576642 -0.3125 8.9375 C-0.27833984 8.07189453 -0.24417969 7.20628906 -0.20898438 6.31445312 C-0.12759886 4.21005613 -0.06210231 2.1050543 0 0 Z " fill="#3ABCAE" transform="translate(69,0)"/>
<path d="M0 0 C1.10844919 3.32534757 0.84454356 5.62182575 0 9 C-2.3125 9.3125 -2.3125 9.3125 -5 9 C-6.9375 6.75 -6.9375 6.75 -8 4 C-7.3125 1.75 -7.3125 1.75 -6 0 C-3.50907189 -1.24546405 -2.58919267 -0.7767578 0 0 Z M-5 5 C-4.67 5.66 -4.34 6.32 -4 7 C-3.34 6.67 -2.68 6.34 -2 6 C-2.99 5.67 -3.98 5.34 -5 5 Z " fill="#585857" transform="translate(91,34)"/>
<path d="M0 0 C2.625 0.375 2.625 0.375 5 1 C5.33 2.32 5.66 3.64 6 5 C5.01 5 4.02 5 3 5 C3 4.34 3 3.68 3 3 C2.34 3 1.68 3 1 3 C1 4.65 1 6.3 1 8 C1.66 8 2.32 8 3 8 C3 7.34 3 6.68 3 6 C3.99 6 4.98 6 6 6 C5.67 7.32 5.34 8.64 5 10 C2.36 10 -0.28 10 -3 10 C-2.25 2.25 -2.25 2.25 0 0 Z " fill="#5A5A59" transform="translate(120,33)"/>
<path d="M0 0 C0.99 0.495 0.99 0.495 2 1 C2 3.97 2 6.94 2 10 C5.3 10 8.6 10 12 10 C12.33 10.99 12.66 11.98 13 13 C9.37 13 5.74 13 2 13 C2 16.96 2 20.92 2 25 C1.67 25 1.34 25 1 25 C0.15672251 16.64251778 -0.12190678 8.39802254 0 0 Z " fill="#08A895" transform="translate(27,3)"/>
<path d="M0 0 C1.32 0.33 2.64 0.66 4 1 C3.01 1 2.02 1 1 1 C1.185625 1.99 1.37125 2.98 1.5625 4 C2.4694173 10.95303266 1.54884018 18.04239521 1 25 C0.67 25 0.34 25 0 25 C0 20.05 0 15.1 0 10 C-1.32 10.33 -2.64 10.66 -4 11 C-4 9.02 -4 7.04 -4 5 C-2.68 5.33 -1.36 5.66 0 6 C0 4.02 0 2.04 0 0 Z " fill="#6F83BC" transform="translate(79,1)"/>
<path d="M0 0 C2.97 0.33 5.94 0.66 9 1 C9 1.99 9 2.98 9 4 C8.01 4 7.02 4 6 4 C6 6.31 6 8.62 6 11 C5.01 11 4.02 11 3 11 C3 8.69 3 6.38 3 4 C2.34 4 1.68 4 1 4 C0.67 2.68 0.34 1.36 0 0 Z " fill="#686867" transform="translate(96,32)"/>
<path d="M0 0 C2.475 0.99 2.475 0.99 5 2 C5.33 5.3 5.66 8.6 6 12 C4.02 12 2.04 12 0 12 C0 8.04 0 4.08 0 0 Z " fill="#8E8E8E" transform="translate(21,32)"/>
<path d="M0 0 C1.32 0 2.64 0 4 0 C4.33 3.96 4.66 7.92 5 12 C3.35 12 1.7 12 0 12 C0 8.04 0 4.08 0 0 Z " fill="#A7A7A6" transform="translate(109,32)"/>
<path d="M0 0 C0.556875 0.474375 1.11375 0.94875 1.6875 1.4375 C4.18346074 3.12395996 6.0446237 3.58953107 9 4 C9 4.33 9 4.66 9 5 C6.69 5.33 4.38 5.66 2 6 C2 7.32 2 8.64 2 10 C1.67 10.66 1.34 11.32 1 12 C0.01 12 -0.98 12 -2 12 C-2.17835515 7.45194365 -1.99785435 4.1205746 0 0 Z " fill="#576FAF" transform="translate(111,6)"/>
<path d="M0 0 C5 2 5 2 5.9375 3.8125 C6.0172568 6.60398817 5.18198059 8.49698229 4 11 C3.01 11 2.02 11 1 11 C0.67 7.37 0.34 3.74 0 0 Z " fill="#5F5F5E" transform="translate(56,32)"/>
<path d="M0 0 C0.33 0.99 0.66 1.98 1 3 C1.66 2.67 2.32 2.34 3 2 C5.0374763 1.77141886 7.08040303 1.58975722 9.125 1.4375 C10.22070312 1.35371094 11.31640625 1.26992187 12.4453125 1.18359375 C13.70988281 1.09271484 13.70988281 1.09271484 15 1 C15 1.66 15 2.32 15 3 C14.30132812 3.02578125 13.60265625 3.0515625 12.8828125 3.078125 C11.97273438 3.13484375 11.06265625 3.1915625 10.125 3.25 C9.22007813 3.29640625 8.31515625 3.3428125 7.3828125 3.390625 C4.82889456 3.75611148 4.82889456 3.75611148 3.6796875 6.046875 C3.45539063 6.69140625 3.23109375 7.3359375 3 8 C3 7.34 3 6.68 3 6 C2.34 6 1.68 6 1 6 C0.67 7.32 0.34 8.64 0 10 C-1.125 3.375 -1.125 3.375 0 0 Z " fill="#4D67AC" transform="translate(89,13)"/>
<path d="M0 0 C0.33 0.66 0.66 1.32 1 2 C3.11846285 2.68729254 3.11846285 2.68729254 5.5625 3.125 C6.80193359 3.37636719 6.80193359 3.37636719 8.06640625 3.6328125 C8.70449219 3.75398437 9.34257813 3.87515625 10 4 C10 4.66 10 5.32 10 6 C6.7 6 3.4 6 0 6 C-0.66 4.68 -1.32 3.36 -2 2 C-1.34 2 -0.68 2 0 2 C0 1.34 0 0.68 0 0 Z " fill="#32519D" transform="translate(113,12)"/>
<path d="M0 0 C-1 2 -2 4 -3 6 C-3.66 5.67 -4.32 5.34 -5 5 C-5 4.34 -5 3.68 -5 3 C-7.31 2.34 -9.62 1.68 -12 1 C-12 0.67 -12 0.34 -12 0 C-10.56359829 -0.19573608 -9.12580496 -0.38127816 -7.6875 -0.5625 C-6.88699219 -0.66691406 -6.08648437 -0.77132813 -5.26171875 -0.87890625 C-3 -1 -3 -1 0 0 Z " fill="#4963A7" transform="translate(126,18)"/>
<path d="M0 0 C0 1.32 0 2.64 0 4 C-2.31 4 -4.62 4 -7 4 C-7 2.68 -7 1.36 -7 0 C-4.3333581 -1.33332095 -2.83319697 -0.67102033 0 0 Z " fill="#425EA4" transform="translate(139,24)"/>
<path d="M0 0 C1.65 0.33 3.3 0.66 5 1 C4.67 2.32 4.34 3.64 4 5 C2.02 5 0.04 5 -2 5 C-2.33 4.01 -2.66 3.02 -3 2 C-2.01 2 -1.02 2 0 2 C0 1.34 0 0.68 0 0 Z " fill="#4A4A48" transform="translate(134,38)"/>
<path d="M0 0 C2.475 0.495 2.475 0.495 5 1 C5 1.66 5 2.32 5 3 C7.31 3 9.62 3 12 3 C12 3.33 12 3.66 12 4 C8.37 4.33 4.74 4.66 1 5 C0.67 3.35 0.34 1.7 0 0 Z " fill="#4F6AAC" transform="translate(109,21)"/>
<path d="M0 0 C2.0625 0.4375 2.0625 0.4375 4 1 C3.34 1 2.68 1 2 1 C2.33 3.31 2.66 5.62 3 8 C1.68 7.67 0.36 7.34 -1 7 C-1.04254356 5.00045254 -1.04080783 2.99958364 -1 1 C-0.67 0.67 -0.34 0.34 0 0 Z " fill="#383837" transform="translate(72,34)"/>
<path d="M0 0 C1.98 0 3.96 0 6 0 C6 0.33 6 0.66 6 1 C8.97 1.495 8.97 1.495 12 2 C9 4 9 4 5.4375 3.6875 C2 3 2 3 0 2 C0 1.34 0 0.68 0 0 Z " fill="#405AA2" transform="translate(111,25)"/>
<path d="M0 0 C0 0.99 0 1.98 0 3 C0.3062434 4.33981486 0.63451555 5.67511887 1 7 C-0.98 7.33 -2.96 7.66 -5 8 C-4.75 5.125 -4.75 5.125 -4 2 C-1.9375 0.625 -1.9375 0.625 0 0 Z " fill="#697DB6" transform="translate(108,19)"/>
<path d="M0 0 C2.375 0.25 2.375 0.25 5 1 C6.4375 2.8125 6.4375 2.8125 7 5 C6.125 7.25 6.125 7.25 5 9 C5 7.35 5 5.7 5 4 C3.02 3.34 1.04 2.68 -1 2 C-0.67 1.34 -0.34 0.68 0 0 Z " fill="#6A6A67" transform="translate(46,33)"/>
<path d="M0 0 C0.598125 0.309375 1.19625 0.61875 1.8125 0.9375 C4.08956772 2.10209704 4.08956772 2.10209704 7 3 C7.33 2.34 7.66 1.68 8 1 C8 2.32 8 3.64 8 5 C5.6875 5.3125 5.6875 5.3125 3 5 C1.1875 2.5 1.1875 2.5 0 0 Z " fill="#525251" transform="translate(83,38)"/>
<path d="M0 0 C-1.125 1.5 -1.125 1.5 -3 3 C-6.1875 3.1875 -6.1875 3.1875 -9 3 C-9 2.01 -9 1.02 -9 0 C-3.375 -1.125 -3.375 -1.125 0 0 Z " fill="#0BAA97" transform="translate(68,25)"/>
<path d="M0 0 C0.66 0 1.32 0 2 0 C2 0.66 2 1.32 2 2 C2.66 2 3.32 2 4 2 C4.33 2.99 4.66 3.98 5 5 C3.02 5.99 3.02 5.99 1 7 C0 6 0 6 -0.0625 2.9375 C-0.041875 1.968125 -0.02125 0.99875 0 0 Z " fill="#2C4B98" transform="translate(90,19)"/>
<path d="M0 0 C2 1 2 1 3 3 C1.625 5 1.625 5 0 7 C-0.66 7 -1.32 7 -2 7 C-2.125 4.625 -2.125 4.625 -2 2 C-1.34 1.34 -0.68 0.68 0 0 Z " fill="#1B3D92" transform="translate(92,9)"/>
<path d="M0 0 C1.32 0 2.64 0 4 0 C4 0.66 4 1.32 4 2 C0.36576791 4.32590854 -2.77088331 4.16265833 -7 4 C-7 3.67 -7 3.34 -7 3 C-5.02 3 -3.04 3 -1 3 C-0.67 2.01 -0.34 1.02 0 0 Z " fill="#49C2B0" transform="translate(66,25)"/>
<path d="M0 0 C1.98 0.99 1.98 0.99 4 2 C3.67 2.33 3.34 2.66 3 3 C4.32 3.66 5.64 4.32 7 5 C4.625 5.625 4.625 5.625 2 6 C1.34 5.34 0.68 4.68 0 4 C0 2.68 0 1.36 0 0 Z " fill="#667CB7" transform="translate(93,6)"/>
<path d="M0 0 C0.66 0.33 1.32 0.66 2 1 C0.68 1.99 -0.64 2.98 -2 4 C-1.34 2.68 -0.68 1.36 0 0 Z " fill="#FFFFFF" transform="translate(91,7)"/>
<path d="M0 0 C0 0.99 0 1.98 0 3 C-0.66 2.67 -1.32 2.34 -2 2 C-1.34 1.34 -0.68 0.68 0 0 Z " fill="#FFFFFF" transform="translate(17,41)"/>
<path d="M0 0 C0.99 0.33 1.98 0.66 3 1 C2.67 1.66 2.34 2.32 2 3 C1.34 2.01 0.68 1.02 0 0 Z " fill="#FFFFFF" transform="translate(44,0)"/>
<path d="M0 0 C0.66 0.66 1.32 1.32 2 2 C1.34 2 0.68 2 0 2 C0 1.34 0 0.68 0 0 Z " fill="#FFFFFF" transform="translate(84,42)"/>
<path d="M0 0 C0.33 0.66 0.66 1.32 1 2 C0.34 1.67 -0.32 1.34 -1 1 C-0.67 0.67 -0.34 0.34 0 0 Z " fill="#FFFFFF" transform="translate(92,42)"/>
<path d="M0 0 C0.99 0.495 0.99 0.495 2 1 C1.01 1.495 1.01 1.495 0 2 C0 1.34 0 0.68 0 0 Z " fill="#FFFFFF" transform="translate(130,33)"/>
<path d="M0 0 C0.66 0 1.32 0 2 0 C1.67 0.66 1.34 1.32 1 2 C0.67 1.34 0.34 0.68 0 0 Z " fill="#FFFFFF" transform="translate(91,33)"/>
<path d="M0 0 C0.66 0 1.32 0 2 0 C1.67 0.66 1.34 1.32 1 2 C0.67 1.34 0.34 0.68 0 0 Z " fill="#FFFFFF" transform="translate(78,33)"/>
<path d="M0 0 C0.66 0.66 1.32 1.32 2 2 C1.34 2 0.68 2 0 2 C0 1.34 0 0.68 0 0 Z " fill="#FFFFFF" transform="translate(95,21)"/>
<path d="M0 0 C0.66 0 1.32 0 2 0 C1.67 0.66 1.34 1.32 1 2 C0.67 1.34 0.34 0.68 0 0 Z " fill="#FFFFFF" transform="translate(119,21)"/>
<path d="M0 0 C0.66 0 1.32 0 2 0 C1.67 0.66 1.34 1.32 1 2 C0.67 1.34 0.34 0.68 0 0 Z " fill="#FFFFFF" transform="translate(112,19)"/>
<path d="M0 0 C0.66 0 1.32 0 2 0 C1.67 0.66 1.34 1.32 1 2 C0.67 1.34 0.34 0.68 0 0 Z " fill="#FFFFFF" transform="translate(87,11)"/>
<path d="M0 0 C2 1 2 1 2 1 Z " fill="#FFFFFF" transform="translate(71,43)"/>
<path d="" fill="#FFFFFF" transform="translate(0,0)"/>
<path d="" fill="#FFFFFF" transform="translate(0,0)"/>
<path d="M0 0 C2 1 2 1 2 1 Z " fill="#FFFFFF" transform="translate(92,37)"/>
<path d="" fill="#FFFFFF" transform="translate(0,0)"/>
<path d="M0 0 C2 1 2 1 2 1 Z " fill="#FFFFFF" transform="translate(123,28)"/>
<path d="M0 0 C2 1 2 1 2 1 Z " fill="#FFFFFF" transform="translate(111,28)"/>
<path d="M0 0 C2 1 2 1 2 1 Z " fill="#FFFFFF" transform="translate(103,28)"/>
<path d="M0 0 C2 1 2 1 2 1 Z " fill="#FFFFFF" transform="translate(92,28)"/>
<path d="M0 0 C2 1 2 1 2 1 Z " fill="#FFFFFF" transform="translate(79,28)"/>
<path d="M0 0 C2 1 2 1 2 1 Z " fill="#FFFFFF" transform="translate(68,28)"/>
<path d="M0 0 C2 1 2 1 2 1 Z " fill="#FFFFFF" transform="translate(54,28)"/>
<path d="" fill="#FFFFFF" transform="translate(0,0)"/>
<path d="" fill="#FFFFFF" transform="translate(0,0)"/>
<path d="M0 0 C2 1 2 1 2 1 Z " fill="#FFFFFF" transform="translate(87,23)"/>
<path d="M0 0 C2 1 2 1 2 1 Z " fill="#FFFFFF" transform="translate(58,22)"/>
<path d="M0 0 C2 1 2 1 2 1 Z " fill="#FFFFFF" transform="translate(110,18)"/>
<path d="" fill="#FFFFFF" transform="translate(0,0)"/>
<path d="M0 0 C2 1 2 1 2 1 Z " fill="#FFFFFF" transform="translate(99,12)"/>
<path d="" fill="#FFFFFF" transform="translate(0,0)"/>
<path d="M0 0 C2 1 2 1 2 1 Z " fill="#FFFFFF" transform="translate(107,10)"/>
<path d="M0 0 C2 1 2 1 2 1 Z " fill="#FFFFFF" transform="translate(102,6)"/>
<path d="" fill="#FFFFFF" transform="translate(0,0)"/>
<path d="" fill="#FFFFFF" transform="translate(0,0)"/>
<path d="" fill="#FFFFFF" transform="translate(0,0)"/>
<path d="" fill="#FFFFFF" transform="translate(0,0)"/>
<path d="" fill="#FFFFFF" transform="translate(0,0)"/>
<path d="" fill="#FFFFFF" transform="translate(0,0)"/>
<path d="" fill="#FFFFFF" transform="translate(0,0)"/>
<path d="" fill="#FFFFFF" transform="translate(0,0)"/>
<path d="" fill="#FFFFFF" transform="translate(0,0)"/>
<path d="" fill="#FFFFFF" transform="translate(0,0)"/>
<path d="" fill="#FFFFFF" transform="translate(0,0)"/>
<path d="" fill="#FFFFFF" transform="translate(0,0)"/>
<path d="" fill="#FFFFFF" transform="translate(0,0)"/>
<path d="" fill="#FFFFFF" transform="translate(0,0)"/>
<path d="" fill="#FFFFFF" transform="translate(0,0)"/>
<path d="" fill="#FFFFFF" transform="translate(0,0)"/>
<path d="" fill="#FFFFFF" transform="translate(0,0)"/>
<path d="" fill="#FFFFFF" transform="translate(0,0)"/>
<path d="" fill="#FFFFFF" transform="translate(0,0)"/>
<path d="" fill="#FFFFFF" transform="translate(0,0)"/>
<path d="" fill="#FFFFFF" transform="translate(0,0)"/>
<path d="" fill="#FFFFFF" transform="translate(0,0)"/>
<path d="" fill="#FFFFFF" transform="translate(0,0)"/>
<path d="" fill="#FFFFFF" transform="translate(0,0)"/>
<path d="" fill="#FFFFFF" transform="translate(0,0)"/>
<path d="" fill="#FFFFFF" transform="translate(0,0)"/>
<path d="" fill="#FFFFFF" transform="translate(0,0)"/>
<path d="" fill="#FFFFFF" transform="translate(0,0)"/>
<path d="" fill="#FFFFFF" transform="translate(0,0)"/>
<path d="" fill="#FFFFFF" transform="translate(0,0)"/>
<path d="" fill="#FFFFFF" transform="translate(0,0)"/>
<path d="" fill="#FFFFFF" transform="translate(0,0)"/>
<path d="" fill="#FFFFFF" transform="translate(0,0)"/>
<path d="" fill="#FFFFFF" transform="translate(0,0)"/>
<path d="" fill="#FFFFFF" transform="translate(0,0)"/>
<path d="" fill="#FFFFFF" transform="translate(0,0)"/>
<path d="" fill="#FFFFFF" transform="translate(0,0)"/>
<path d="" fill="#FFFFFF" transform="translate(0,0)"/>
<path d="" fill="#FFFFFF" transform="translate(0,0)"/>
<path d="" fill="#FFFFFF" transform="translate(0,0)"/>
<path d="" fill="#FFFFFF" transform="translate(0,0)"/>
<path d="" fill="#FFFFFF" transform="translate(0,0)"/>
<path d="" fill="#FFFFFF" transform="translate(0,0)"/>
<path d="" fill="#FFFFFF" transform="translate(0,0)"/>
<path d="" fill="#FFFFFF" transform="translate(0,0)"/>
<path d="" fill="#FFFFFF" transform="translate(0,0)"/>
<path d="" fill="#FFFFFF" transform="translate(0,0)"/>
<path d="" fill="#FFFFFF" transform="translate(0,0)"/>
<path d="" fill="#FFFFFF" transform="translate(0,0)"/>
<path d="" fill="#FFFFFF" transform="translate(0,0)"/>
<path d="" fill="#FFFFFF" transform="translate(0,0)"/>
<path d="" fill="#FFFFFF" transform="translate(0,0)"/>
<path d="" fill="#FFFFFF" transform="translate(0,0)"/>
<path d="" fill="#FFFFFF" transform="translate(0,0)"/>
<path d="" fill="#FFFFFF" transform="translate(0,0)"/>
<path d="" fill="#FFFFFF" transform="translate(0,0)"/>
<path d="" fill="#FFFFFF" transform="translate(0,0)"/>
<path d="" fill="#FFFFFF" transform="translate(0,0)"/>
<path d="" fill="#FFFFFF" transform="translate(0,0)"/>
<path d="" fill="#FFFFFF" transform="translate(0,0)"/>
<path d="" fill="#FFFFFF" transform="translate(0,0)"/>
<path d="" fill="#FFFFFF" transform="translate(0,0)"/>
<path d="" fill="#FFFFFF" transform="translate(0,0)"/>
<path d="" fill="#FFFFFF" transform="translate(0,0)"/>
<path d="" fill="#FFFFFF" transform="translate(0,0)"/>
<path d="" fill="#FFFFFF" transform="translate(0,0)"/>
<path d="" fill="#FFFFFF" transform="translate(0,0)"/>
<path d="" fill="#FFFFFF" transform="translate(0,0)"/>
<path d="" fill="#FFFFFF" transform="translate(0,0)"/>
<path d="" fill="#FFFFFF" transform="translate(0,0)"/>
<path d="" fill="#FFFFFF" transform="translate(0,0)"/>
<path d="" fill="#FFFFFF" transform="translate(0,0)"/>
<path d="" fill="#FFFFFF" transform="translate(0,0)"/>
<path d="" fill="#FFFFFF" transform="translate(0,0)"/>
<path d="" fill="#FFFFFF" transform="translate(0,0)"/>
<path d="" fill="#FFFFFF" transform="translate(0,0)"/>
<path d="" fill="#FFFFFF" transform="translate(0,0)"/>
<path d="" fill="#FFFFFF" transform="translate(0,0)"/>
<path d="" fill="#FFFFFF" transform="translate(0,0)"/>
<path d="" fill="#FFFFFF" transform="translate(0,0)"/>
<path d="" fill="#FFFFFF" transform="translate(0,0)"/>
<path d="" fill="#FFFFFF" transform="translate(0,0)"/>
<path d="" fill="#FFFFFF" transform="translate(0,0)"/>
<path d="" fill="#FFFFFF" transform="translate(0,0)"/>
<path d="" fill="#FFFFFF" transform="translate(0,0)"/>
<path d="" fill="#FFFFFF" transform="translate(0,0)"/>
<path d="" fill="#FFFFFF" transform="translate(0,0)"/>
<path d="" fill="#FFFFFF" transform="translate(0,0)"/>
<path d="" fill="#FFFFFF" transform="translate(0,0)"/>
<path d="" fill="#FFFFFF" transform="translate(0,0)"/>
<path d="" fill="#FFFFFF" transform="translate(0,0)"/>
<path d="" fill="#FFFFFF" transform="translate(0,0)"/>
<path d="" fill="#FFFFFF" transform="translate(0,0)"/>
<path d="" fill="#FFFFFF" transform="translate(0,0)"/>
<path d="" fill="#FFFFFF" transform="translate(0,0)"/>
<path d="" fill="#FFFFFF" transform="translate(0,0)"/>
<path d="" fill="#FFFFFF" transform="translate(0,0)"/>
<path d="" fill="#FFFFFF" transform="translate(0,0)"/>
<path d="" fill="#FFFFFF" transform="translate(0,0)"/>
<path d="" fill="#FFFFFF" transform="translate(0,0)"/>
<path d="" fill="#FFFFFF" transform="translate(0,0)"/>
<path d="" fill="#FFFFFF" transform="translate(0,0)"/>
<path d="" fill="#FFFFFF" transform="translate(0,0)"/>
<path d="" fill="#FFFFFF" transform="translate(0,0)"/>
<path d="" fill="#FFFFFF" transform="translate(0,0)"/>
<path d="" fill="#FFFFFF" transform="translate(0,0)"/>
<path d="" fill="#FFFFFF" transform="translate(0,0)"/>
<path d="" fill="#FFFFFF" transform="translate(0,0)"/>
<path d="" fill="#FFFFFF" transform="translate(0,0)"/>
<path d="" fill="#FFFFFF" transform="translate(0,0)"/>
<path d="" fill="#FFFFFF" transform="translate(0,0)"/>
<path d="" fill="#FFFFFF" transform="translate(0,0)"/>
<path d="" fill="#FFFFFF" transform="translate(0,0)"/>
<path d="" fill="#FFFFFF" transform="translate(0,0)"/>
<path d="" fill="#FFFFFF" transform="translate(0,0)"/>
<path d="" fill="#FFFFFF" transform="translate(0,0)"/>
<path d="" fill="#FFFFFF" transform="translate(0,0)"/>
<path d="" fill="#FFFFFF" transform="translate(0,0)"/>
<path d="" fill="#FFFFFF" transform="translate(0,0)"/>
<path d="" fill="#FFFFFF" transform="translate(0,0)"/>
</svg>
